<svg width="127" height="45" viewBox="0 0 127 45" fill="none" xmlns="http://www.w3.org/2000/svg">
<rect width="127" height="45" rx="10" fill="white"/>
<rect x="0.5" y="0.5" width="126" height="44" rx="9.5" stroke="black" stroke-opacity="0.5"/>
<path d="M9 16.0254L20.2979 12L31.9 15.9538L30.0214 30.9014L20.2979 36.2865L10.7265 30.973L9 16.0254Z" fill="#E23237"/>
<path d="M31.9 15.9538L20.2979 12V36.2865L30.0214 30.9104L31.9 15.9538Z" fill="#B52E31"/>
<path d="M20.3157 14.8357L13.2758 30.499L15.9057 30.4542L17.3191 26.9208H23.6345L25.182 30.499L27.6956 30.5437L20.3157 14.8357ZM20.3337 19.854L22.7131 24.8276H18.2404L20.3337 19.854Z" fill="white"/>
<path d="M52.704 32H48.096V31.808C48.096 31.392 48.208 31.12 48.432 30.992C48.544 30.944 48.68 30.912 48.84 30.896L49.944 30.848L48.672 26.456H43.584L42.312 30.8L44.112 30.944C44.176 31.648 43.96 32 43.464 32H39.264V31.808C39.264 31.392 39.376 31.12 39.6 30.992C39.712 30.944 39.848 30.912 40.008 30.896L40.968 30.848L45.6 15.728C46.112 15.664 46.632 15.664 47.16 15.728L51.792 30.8L53.352 30.944C53.416 31.648 53.2 32 52.704 32ZM43.944 25.256H48.312L46.152 17.744L43.944 25.256ZM67.1124 32H62.6484V31.808C62.6484 31.424 62.7604 31.184 62.9844 31.088C63.0964 31.024 63.2324 30.984 63.3924 30.968L64.4484 30.92V24.704C64.4484 22.464 63.5604 21.344 61.7844 21.344C61.1284 21.344 60.5364 21.472 60.0084 21.728C59.4804 21.984 58.8804 22.392 58.2084 22.952V30.872L59.9124 31.016C59.9764 31.672 59.7604 32 59.2644 32H54.7524V31.808C54.7524 31.296 55.0084 31.016 55.5204 30.968L56.5524 30.92V21.464L55.3044 21.32C54.9204 21.288 54.7284 20.96 54.7284 20.336L57.8244 19.928L58.1364 21.752H58.2084C59.5044 20.52 60.8404 19.904 62.2164 19.904C63.2884 19.904 64.2004 20.28 64.9524 21.032C65.7204 21.784 66.1044 22.944 66.1044 24.512V30.872L67.7844 31.016C67.8484 31.672 67.6244 32 67.1124 32ZM73.1192 29.72L73.8392 29.744C75.7912 29.776 77.1672 30.008 77.9672 30.44C78.7832 30.856 79.1912 31.632 79.1912 32.768C79.1912 34.16 78.6792 35.28 77.6552 36.128C76.6312 36.992 75.3112 37.424 73.6952 37.424C72.0952 37.424 70.8792 37.12 70.0472 36.512C69.2152 35.92 68.7992 35.152 68.7992 34.208C68.7992 32.992 69.4312 31.912 70.6952 30.968C70.2952 30.76 70.0952 30.4 70.0952 29.888C70.0952 29.36 70.4952 28.68 71.2952 27.848C70.0792 27.224 69.4312 26.152 69.3512 24.632C69.2712 23.352 69.6312 22.248 70.4312 21.32C71.2312 20.376 72.3192 19.904 73.6952 19.904C74.6072 19.904 75.4152 20.128 76.1192 20.576L79.0232 19.808C79.1672 20 79.2472 20.24 79.2632 20.528C79.2792 20.816 79.1992 21.04 79.0232 21.2C78.7672 21.328 78.0792 21.376 76.9592 21.344C77.4712 22.016 77.7112 22.944 77.6792 24.128C77.6632 25.296 77.2792 26.288 76.5272 27.104C75.7912 27.92 74.7512 28.328 73.4072 28.328C73.0392 28.328 72.6712 28.288 72.3032 28.208C71.6632 28.96 71.5032 29.408 71.8232 29.552C72.1112 29.664 72.5432 29.72 73.1192 29.72ZM71.6552 21.944C71.2072 22.536 70.9832 23.264 70.9832 24.128C70.9832 24.992 71.1992 25.728 71.6312 26.336C72.0792 26.944 72.6952 27.24 73.4792 27.224C74.2792 27.208 74.9032 26.896 75.3512 26.288C75.8152 25.68 76.0472 24.952 76.0472 24.104C76.0472 23.24 75.8312 22.512 75.3992 21.92C74.9672 21.312 74.3512 21.016 73.5512 21.032C72.7512 21.048 72.1192 21.352 71.6552 21.944ZM70.2152 33.608C70.2152 34.408 70.5512 35 71.2232 35.384C71.8952 35.784 72.8232 35.984 74.0072 35.984C75.1912 35.984 76.1432 35.712 76.8632 35.168C77.5832 34.624 77.9432 33.968 77.9432 33.2C77.9432 32.448 77.5192 31.952 76.6712 31.712C75.9352 31.52 74.9912 31.408 73.8392 31.376C72.7032 31.344 71.9432 31.296 71.5592 31.232C70.6632 32.016 70.2152 32.808 70.2152 33.608ZM79.8606 20.96C79.8606 20.496 80.0846 20.264 80.5326 20.264H83.3406V27.344C83.3406 28.528 83.5886 29.424 84.0846 30.032C84.5806 30.624 85.3166 30.92 86.2926 30.92C87.2846 30.92 88.2846 30.48 89.2926 29.6V21.392L87.4446 21.272C87.3806 20.6 87.5966 20.264 88.0926 20.264H90.9486V30.632L92.1246 30.752C92.4926 30.784 92.6766 31.128 92.6766 31.784L89.7726 32.024L89.4606 30.752C88.3886 31.824 87.1646 32.36 85.7886 32.36C84.6846 32.36 83.7246 31.968 82.9086 31.184C82.0926 30.4 81.6846 29.168 81.6846 27.488V21.392L79.8606 21.272V20.96ZM98.8269 32H94.3149V31.808C94.3149 31.296 94.5709 31.016 95.0829 30.968L96.1149 30.92V16.832L94.8669 16.712C94.4829 16.664 94.2909 16.328 94.2909 15.704L97.7709 15.248V30.872L99.4749 31.016C99.5389 31.672 99.3229 32 98.8269 32ZM111.694 31.256C111.694 32.008 111.198 32.384 110.206 32.384C109.214 32.384 108.638 31.88 108.478 30.872C107.454 31.864 106.222 32.36 104.782 32.36C103.678 32.36 102.798 32.08 102.142 31.52C101.502 30.944 101.182 30.168 101.182 29.192C101.182 28.216 101.542 27.392 102.262 26.72C102.982 26.048 104.174 25.712 105.838 25.712C106.814 25.712 107.678 25.824 108.43 26.048V24.152C108.43 23.24 108.198 22.512 107.734 21.968C107.286 21.408 106.622 21.128 105.742 21.128C104.862 21.128 104.23 21.368 103.846 21.848C103.478 22.312 103.27 22.856 103.222 23.48C102.838 23.512 102.518 23.432 102.262 23.24C102.006 23.048 101.878 22.736 101.878 22.304C101.878 21.616 102.23 21.048 102.934 20.6C103.638 20.136 104.55 19.904 105.67 19.904C106.646 19.904 107.574 20.144 108.454 20.624C108.95 20.88 109.35 21.304 109.654 21.896C109.958 22.488 110.11 23.208 110.11 24.056V31.064L111.694 31.256ZM108.43 27.488C107.694 27.088 106.838 26.888 105.862 26.888C104.886 26.888 104.166 27.072 103.702 27.44C103.254 27.808 103.03 28.312 103.03 28.952C103.03 29.592 103.23 30.104 103.63 30.488C104.03 30.856 104.582 31.04 105.286 31.04C106.406 31.04 107.454 30.608 108.43 29.744V27.488ZM116.685 21.848C117.165 21.336 117.757 20.888 118.461 20.504C119.181 20.104 119.765 19.904 120.213 19.904C120.677 19.904 121.053 20.016 121.341 20.24C121.629 20.448 121.773 20.784 121.773 21.248C121.773 22.08 121.637 22.648 121.365 22.952C121.157 23.128 120.829 23.2 120.381 23.168C120.381 22.016 120.077 21.44 119.469 21.44C118.701 21.44 117.773 21.984 116.685 23.072V30.872L118.749 31.016C118.813 31.672 118.589 32 118.077 32H113.277V31.808C113.277 31.424 113.389 31.184 113.613 31.088C113.725 31.024 113.861 30.984 114.021 30.968L115.029 30.92V21.536L113.733 21.392C113.381 21.36 113.205 21.032 113.205 20.408L116.445 20L116.613 21.848H116.685Z" fill="#707770"/>
</svg>
