<svg width="42" height="42" viewBox="0 0 42 42" fill="none" xmlns="http://www.w3.org/2000/svg">
<path d="M0 21C0 26.5695 2.21249 31.911 6.15076 35.8492C10.089 39.7875 15.4305 42 21 42C26.5695 42 31.911 39.7875 35.8492 35.8492C39.7875 31.911 42 26.5695 42 21C42 15.4305 39.7875 10.089 35.8492 6.15076C31.911 2.21249 26.5695 0 21 0C15.4305 0 10.089 2.21249 6.15076 6.15076C2.21249 10.089 0 15.4305 0 21H0ZM15.498 28.3579C15.3769 28.4832 15.2321 28.5832 15.072 28.652C14.9118 28.7208 14.7396 28.757 14.5653 28.7585C14.3911 28.76 14.2182 28.7268 14.0569 28.6608C13.8956 28.5948 13.7491 28.4974 13.6259 28.3741C13.5026 28.2509 13.4052 28.1044 13.3392 27.9431C13.2732 27.7818 13.24 27.6089 13.2415 27.4347C13.243 27.2604 13.2792 27.0882 13.348 26.928C13.4168 26.7679 13.5168 26.6231 13.6421 26.502L24.3941 15.75H17.1281C16.78 15.75 16.4462 15.6117 16.2 15.3656C15.9539 15.1194 15.8156 14.7856 15.8156 14.4375C15.8156 14.0894 15.9539 13.7556 16.2 13.5094C16.4462 13.2633 16.78 13.125 17.1281 13.125H27.5625C27.9106 13.125 28.2444 13.2633 28.4906 13.5094C28.7367 13.7556 28.875 14.0894 28.875 14.4375V24.8719C28.875 25.22 28.7367 25.5538 28.4906 25.8C28.2444 26.0461 27.9106 26.1844 27.5625 26.1844C27.2144 26.1844 26.8806 26.0461 26.6344 25.8C26.3883 25.5538 26.25 25.22 26.25 24.8719V17.6059L15.498 28.3579Z" fill="white"/>
</svg>
