<svg width="123" height="45" viewBox="0 0 123 45" fill="none" xmlns="http://www.w3.org/2000/svg">
<rect width="105" height="45" rx="10" fill="white"/>
<rect x="0.5" y="0.5" width="104" height="44" rx="9.5" stroke="black" stroke-opacity="0.5"/>
<path d="M27 24.2V21.8H29.4V24.2H27Z" fill="#2251A7"/>
<path fill-rule="evenodd" clip-rule="evenodd" d="M21 6.0104L36.6 15.1112V30.8888L21 39.992L5.4 30.8888V15.1112L21 6.008V6.0104ZM18.1968 14.6C16.0759 14.6 14.0419 15.4425 12.5422 16.9422C11.0425 18.4419 10.2 20.4759 10.2 22.5968V23.4032C10.2003 24.7659 10.5489 26.1059 11.2125 27.296C11.8762 28.4862 12.833 29.487 13.9922 30.2035C15.1513 30.92 16.4743 31.3284 17.8356 31.3899C19.1969 31.4515 20.5513 31.1642 21.7704 30.5552L22.7376 30.0752L21.6624 27.9272L20.6976 28.4072C19.8448 28.8339 18.8971 29.0355 17.9444 28.9929C16.9918 28.9503 16.0658 28.6649 15.2545 28.1637C14.4432 27.6626 13.7735 26.9624 13.3089 26.1297C12.8443 25.2969 12.6003 24.3592 12.6 23.4056V22.5992C12.6001 21.6454 12.8439 20.7075 13.3084 19.8745C13.7728 19.0414 14.4424 18.3409 15.2536 17.8394C16.0649 17.3378 16.9908 17.0519 17.9436 17.0087C18.8964 16.9656 19.8444 17.1666 20.6976 17.5928L21.6624 18.0752L22.7376 15.9296L21.7704 15.4472C20.6603 14.891 19.436 14.601 18.1944 14.6H18.1968ZM24.6 17V19.4H22.2V21.8H24.6V24.2H22.2V26.6H24.6V29H27V26.6H29.4V29H31.8V26.6H34.2V24.2H31.8V21.8H34.2V19.4H31.8V17H29.4V19.4H27V17H24.6Z" fill="#2251A7"/>
<path d="M51.04 15.392C52.336 15.392 53.416 15.688 54.28 16.28C55.16 16.856 55.6 17.592 55.6 18.488C55.6 19.384 55.096 19.84 54.088 19.856C54.088 18.848 53.8 18.072 53.224 17.528C52.648 16.968 51.856 16.688 50.848 16.688C49.2 16.688 47.944 17.352 47.08 18.68C46.216 20.008 45.784 21.768 45.784 23.96C45.784 28.584 47.568 30.896 51.136 30.896C52.8 30.896 54.24 30.408 55.456 29.432C55.664 29.544 55.768 29.72 55.768 29.96C55.768 30.456 55.28 30.984 54.304 31.544C53.328 32.088 52.136 32.36 50.728 32.36C48.568 32.36 46.904 31.656 45.736 30.248C44.584 28.824 43.976 26.84 43.912 24.296C43.864 21.736 44.472 19.616 45.736 17.936C47.016 16.24 48.784 15.392 51.04 15.392ZM67.3263 26.168H70.7823C71.0223 26.536 71.1583 26.96 71.1903 27.44H66.9903L65.8623 31.592H64.4943L65.6223 27.44H61.6383L60.5103 31.592H59.1423L60.2703 27.44H58.1823C57.9263 27.12 57.7823 26.696 57.7503 26.168H60.6063L61.8303 21.776H58.9263C58.6863 21.424 58.5423 21.016 58.4943 20.552H62.1423L63.2943 16.4H64.6383L63.5103 20.552L67.5183 20.528L68.6463 16.4H69.9903L68.8623 20.528H71.5263C71.7663 20.832 71.9103 21.248 71.9583 21.776H68.5262L67.3263 26.168ZM65.9583 26.168L67.1823 21.776H63.1743L61.9743 26.168H65.9583Z" fill="#707770"/>
</svg>
