<svg width="46" height="61" viewBox="0 0 46 61" fill="none" xmlns="http://www.w3.org/2000/svg">
<g clip-path="url(#clip0_218_7)">
<path d="M44.7369 22.7925C44.7369 27.7603 43.3226 32.2276 40.4941 36.1947C37.6678 40.1617 34.0143 42.9058 29.5358 44.429C29.0154 44.5291 28.6329 44.4601 28.3928 44.2222C28.2743 44.1069 28.1809 43.9684 28.1186 43.8154C28.0562 43.6623 28.0261 43.498 28.0303 43.3327V37.0686C28.0303 35.1496 27.5278 33.7442 26.5249 32.8547C27.5268 32.7542 28.5193 32.5757 29.4935 32.321C30.3696 32.0831 31.2769 31.6984 32.2131 31.1647C33.1131 30.6611 33.9092 29.991 34.5591 29.1901C35.1861 28.4073 35.6976 27.3689 36.0934 26.0725C36.4892 24.7761 36.6871 23.2884 36.6871 21.6073C36.6871 19.2124 35.9244 17.1733 34.4012 15.4922C35.1128 13.691 35.0372 11.6741 34.1677 9.4371C33.6273 9.25921 32.8468 9.37039 31.8239 9.76398C30.8961 10.1125 30.004 10.5496 29.16 11.0693L28.0592 11.7809C26.2513 11.2654 24.38 11.0064 22.5 11.0115C20.62 11.0072 18.7486 11.2669 16.9408 11.7831C16.5386 11.5046 16.1286 11.2376 15.7111 10.9826C15.1997 10.6646 14.3925 10.2843 13.2917 9.83959C12.1932 9.39485 11.3616 9.26143 10.8012 9.43933C9.954 11.6741 9.88507 13.691 10.6011 15.4922C9.07564 17.1733 8.3107 19.2124 8.3107 21.6073C8.3107 23.2884 8.51083 24.7716 8.90664 26.0591C9.30246 27.3444 9.80946 28.3829 10.4254 29.1745C11.0641 29.9838 11.856 30.6593 12.7558 31.1625C13.692 31.6962 14.6015 32.0831 15.4776 32.3188C16.356 32.559 17.3455 32.7369 18.4462 32.8547C17.6746 33.5663 17.201 34.587 17.0275 35.9123C16.6129 36.1131 16.1753 36.2625 15.7245 36.357C15.1811 36.4637 14.6282 36.5136 14.0745 36.506C13.4363 36.506 12.807 36.2925 12.1777 35.8678C11.5506 35.4409 11.0147 34.8227 10.57 34.0133C10.2225 33.4011 9.74324 32.874 9.16682 32.47C8.59755 32.0742 8.11946 31.8363 7.73254 31.7584L7.15438 31.6695C6.74967 31.6695 6.46949 31.714 6.31383 31.8029C6.15817 31.8919 6.1137 32.003 6.16929 32.1431C6.23469 32.294 6.32239 32.4342 6.42946 32.559C6.54054 32.6925 6.66749 32.812 6.80749 32.9148L7.00762 33.0615C7.43456 33.2617 7.85262 33.6375 8.26845 34.1912C8.68427 34.7448 8.98892 35.2496 9.18016 35.7033L9.46923 36.3859C9.72051 37.1375 10.1452 37.7468 10.7456 38.2116C11.3438 38.6785 11.9909 38.9743 12.6847 39.101C13.3785 39.23 14.05 39.3012 14.6971 39.3101C15.342 39.319 15.8801 39.2856 16.3048 39.2056L16.9697 39.0877C16.9697 39.8393 16.9742 40.7199 16.9853 41.7294L16.9986 43.3305C16.9986 43.6863 16.8741 43.9843 16.6206 44.22C16.3716 44.4601 15.9846 44.5291 15.4643 44.429C10.9858 42.9058 7.33228 40.1595 4.50597 36.1947C1.67745 32.2276 0.263184 27.7603 0.263184 22.7925C0.263184 18.6565 1.25717 14.8451 3.24514 11.3517C5.1697 7.92534 7.96102 5.06501 11.3394 3.05735C14.7071 1.03005 18.5692 -0.0280185 22.5 -0.000213028C26.4316 -0.0284286 30.2945 1.02965 33.6629 3.05735C37.0404 5.06532 39.831 7.92562 41.7549 11.3517C43.7429 14.8429 44.7369 18.6587 44.7369 22.7925Z" fill="#5BC159"/>
</g>
<path d="M5.614 55.716H8.554V55.828C8.554 56.1547 8.40933 56.332 8.12 56.36L7.77 56.402H7.742V59.006C7.434 59.37 6.972 59.664 6.356 59.888C5.74 60.1027 5.10533 60.21 4.452 60.21C3.23867 60.21 2.29133 59.8087 1.61 59.006C0.938 58.194 0.583333 57.0273 0.546 55.506C0.508667 53.9753 0.872667 52.7247 1.638 51.754C2.40333 50.774 3.49533 50.284 4.914 50.284C5.85667 50.284 6.56133 50.4613 7.028 50.816C7.504 51.1707 7.742 51.5907 7.742 52.076C7.742 52.3093 7.672 52.51 7.532 52.678C7.40133 52.8367 7.182 52.916 6.874 52.916C6.874 51.6467 6.15533 51.012 4.718 51.012C3.70067 51.012 2.926 51.404 2.394 52.188C1.87133 52.9627 1.61 53.994 1.61 55.282C1.61 56.57 1.85267 57.5827 2.338 58.32C2.83267 59.0573 3.61667 59.426 4.69 59.426C5.59533 59.426 6.3 59.2113 6.804 58.782V56.43L5.236 56.346C5.19867 55.926 5.32467 55.716 5.614 55.716ZM12.1093 60H9.44934V59.888C9.44934 59.664 9.51468 59.524 9.64534 59.468C9.71068 59.4307 9.79001 59.4073 9.88334 59.398L10.4713 59.37V53.826L9.74334 53.77C9.51934 53.742 9.40734 53.5413 9.40734 53.168L11.4373 52.944V59.342L12.5013 59.426C12.5387 59.8087 12.408 60 12.1093 60ZM11.3393 51.67C11.2087 51.7913 11.0407 51.852 10.8353 51.852C10.63 51.852 10.462 51.7913 10.3313 51.67C10.21 51.5393 10.1493 51.3713 10.1493 51.166C10.1493 50.9607 10.21 50.7927 10.3313 50.662C10.462 50.5313 10.63 50.466 10.8353 50.466C11.0407 50.466 11.2087 50.5313 11.3393 50.662C11.47 50.7927 11.5353 50.9607 11.5353 51.166C11.5353 51.3713 11.47 51.5393 11.3393 51.67ZM15.1336 53.798V57.914C15.1336 58.4367 15.1896 58.8147 15.3016 59.048C15.4229 59.2813 15.6469 59.398 15.9736 59.398C16.3096 59.398 16.5896 59.3607 16.8136 59.286C17.0376 59.2113 17.3129 59.0433 17.6396 58.782C17.8076 58.8287 17.8916 58.9687 17.8916 59.202C17.8916 59.4353 17.6629 59.664 17.2056 59.888C16.7576 60.112 16.3236 60.224 15.9036 60.224C15.2502 60.224 14.7976 60.0373 14.5456 59.664C14.2936 59.2907 14.1676 58.7493 14.1676 58.04V53.798H13.1456C13.1176 53.3687 13.2529 53.154 13.5516 53.154H14.1676V51.488L15.1336 51.25V53.154H17.7516C17.7796 53.462 17.7096 53.6767 17.5416 53.798H15.1336ZM27.0479 60H24.3319V59.888C24.3319 59.6453 24.3972 59.4867 24.5279 59.412C24.5932 59.384 24.6726 59.3653 24.7659 59.356L25.3959 59.328V55.604H20.7619V59.3L21.7839 59.384C21.8212 59.7947 21.6952 60 21.4059 60H18.6759V59.888C18.6759 59.6453 18.7412 59.4867 18.8719 59.412C18.9372 59.384 19.0166 59.3653 19.1099 59.356L19.7539 59.328V51.222L18.7319 51.138C18.6946 50.7273 18.8206 50.522 19.1099 50.522H21.8399V50.634C21.8399 50.886 21.7746 51.04 21.6439 51.096C21.5786 51.1333 21.4992 51.1567 21.4059 51.166L20.7619 51.194V54.918H25.3959V51.222L24.3879 51.138C24.3506 50.7273 24.4766 50.522 24.7659 50.522H27.4819V50.634C27.4819 50.886 27.4166 51.04 27.2859 51.096C27.2206 51.1333 27.1412 51.1567 27.0479 51.166L26.4179 51.194V59.3L27.4259 59.384C27.4632 59.7947 27.3372 60 27.0479 60ZM28.2924 53.56C28.2924 53.2893 28.423 53.154 28.6844 53.154H30.3224V57.284C30.3224 57.9747 30.467 58.4973 30.7564 58.852C31.0457 59.1973 31.475 59.37 32.0444 59.37C32.623 59.37 33.2064 59.1133 33.7944 58.6V53.812L32.7164 53.742C32.679 53.35 32.805 53.154 33.0944 53.154H34.7604V59.202L35.4464 59.272C35.661 59.2907 35.7684 59.4913 35.7684 59.874L34.0744 60.014L33.8924 59.272C33.267 59.8973 32.553 60.21 31.7504 60.21C31.1064 60.21 30.5464 59.9813 30.0704 59.524C29.5944 59.0667 29.3564 58.348 29.3564 57.368V53.812L28.2924 53.742V53.56ZM38.3201 53.938C39.0014 53.2753 39.7294 52.944 40.5041 52.944C41.2881 52.944 41.9367 53.2287 42.4501 53.798C42.9727 54.3673 43.2434 55.226 43.2621 56.374C43.2901 57.522 43.0101 58.4507 42.4221 59.16C41.8341 59.86 41.0081 60.21 39.9441 60.21C39.4121 60.21 38.8707 60.0887 38.3201 59.846L37.3541 59.482V51.166L36.6261 51.082C36.4021 51.0633 36.2901 50.8627 36.2901 50.48L38.3201 50.228V53.938ZM38.3201 58.768C38.8241 59.2253 39.4307 59.454 40.1401 59.454C40.8587 59.454 41.3861 59.1787 41.7221 58.628C42.0581 58.0773 42.2261 57.3913 42.2261 56.57C42.2261 55.7487 42.0581 55.0767 41.7221 54.554C41.3954 54.0313 40.8867 53.77 40.1961 53.77C39.8507 53.77 39.5427 53.84 39.2721 53.98C39.0014 54.12 38.6841 54.3393 38.3201 54.638V58.768Z" fill="#37B34A"/>
<defs>
<clipPath id="clip0_218_7">
<rect width="44.4737" height="44.4737" fill="white" transform="translate(0.263184)"/>
</clipPath>
</defs>
</svg>
