<svg width="102" height="45" viewBox="0 0 102 45" fill="none" xmlns="http://www.w3.org/2000/svg">
<rect width="101.437" height="45" rx="10" fill="white"/>
<rect x="0.5" y="0.5" width="100.437" height="44" rx="9.5" stroke="black" stroke-opacity="0.5"/>
<path d="M16.4277 31.6988C16.4277 31.6988 15.12 32.5234 17.3584 32.8025C20.0701 33.1379 21.4559 33.0899 24.4443 32.4765C24.4443 32.4765 25.23 33.0107 26.3271 33.4735C19.6282 36.5869 11.1659 33.2931 16.4277 31.6988M15.6091 27.6359C15.6091 27.6359 14.1424 28.8133 16.3824 29.0645C19.2791 29.3885 21.5667 29.4151 25.5252 28.5885C25.5252 28.5885 26.0727 29.1904 26.9336 29.5196C18.8341 32.088 9.81268 29.7221 15.6091 27.6359" fill="#5382A1"/>
<path d="M22.51 20.7439C24.1607 22.8047 22.0764 24.6592 22.0764 24.6592C22.0764 24.6592 26.2676 22.3129 24.3427 19.3748C22.545 16.6349 21.1663 15.2734 28.6298 10.5796C28.6298 10.5796 16.9147 13.7524 22.51 20.7438" fill="#E76F00"/>
<path d="M31.37 34.7039C31.37 34.7039 32.3378 35.5685 30.3042 36.2375C26.4375 37.5078 14.2104 37.8913 10.8137 36.2881C9.59272 35.7122 11.8825 34.9128 12.6027 34.7449C13.3538 34.5683 13.7831 34.6013 13.7831 34.6013C12.4252 33.5639 5.00628 36.6381 10.0147 37.5184C23.6733 39.9204 34.9129 36.4369 31.37 34.7039ZM17.0565 23.4263C17.0565 23.4263 10.8371 25.0283 14.8541 25.6099C16.5502 25.8562 19.9313 25.8005 23.0808 25.5143C25.6547 25.279 28.2392 24.7783 28.2392 24.7783C28.2392 24.7783 27.3316 25.1998 26.675 25.686C20.3592 27.4873 8.15823 26.6493 11.6707 24.8068C14.6413 23.2497 17.0566 23.4263 17.0566 23.4263M28.2135 30.1891C34.6339 26.5712 31.6654 23.0945 29.5934 23.563C29.0855 23.6775 28.8591 23.7768 28.8591 23.7768C28.8591 23.7768 29.0477 23.4566 29.4077 23.318C33.5067 21.7552 36.6592 27.9271 28.0845 30.3714C28.0845 30.3715 28.1839 30.2753 28.2135 30.1891Z" fill="#5382A1"/>
<path d="M24.3427 3.00011C24.3427 3.00011 27.8985 6.85737 20.9703 12.7884C15.4148 17.5463 19.7035 20.259 20.9681 23.3585C17.7252 20.1856 15.3452 17.3925 16.9419 14.793C19.2853 10.9769 25.7773 9.12681 24.3427 3" fill="#E76F00"/>
<path d="M17.6874 39.9926C23.8501 40.4205 33.3136 39.7553 33.5377 36.5931C33.5377 36.5931 33.1069 37.7919 28.4446 38.7439C23.1846 39.8173 16.6972 39.692 12.8494 39.004C12.8495 39.004 13.6371 39.711 17.6875 39.9926" fill="#5382A1"/>
<path d="M48.208 16.752H52.984C52.984 16.752 52.984 16.816 52.984 16.944C52.984 17.376 52.872 17.64 52.648 17.736C52.536 17.8 52.4 17.84 52.24 17.856L51.232 17.904V29.88C51.232 31.224 50.912 32.328 50.272 33.192C49.632 34.056 48.768 34.488 47.68 34.488C47.136 34.488 46.672 34.344 46.288 34.056C45.92 33.784 45.736 33.464 45.736 33.096C45.736 32.328 46.128 31.96 46.912 31.992C46.944 32.776 47.336 33.168 48.088 33.168C48.568 33.168 48.92 32.944 49.144 32.496C49.384 32.048 49.504 31.256 49.504 30.12V17.952L47.536 17.808C47.472 17.104 47.696 16.752 48.208 16.752ZM65.491 32.256C65.491 33.008 64.995 33.384 64.003 33.384C63.011 33.384 62.435 32.88 62.275 31.872C61.251 32.864 60.019 33.36 58.579 33.36C57.475 33.36 56.595 33.08 55.939 32.52C55.299 31.944 54.979 31.168 54.979 30.192C54.979 29.216 55.339 28.392 56.059 27.72C56.779 27.048 57.971 26.712 59.635 26.712C60.611 26.712 61.475 26.824 62.227 27.048V25.152C62.227 24.24 61.995 23.512 61.531 22.968C61.083 22.408 60.419 22.128 59.539 22.128C58.659 22.128 58.027 22.368 57.643 22.848C57.275 23.312 57.067 23.856 57.019 24.48C56.635 24.512 56.315 24.432 56.059 24.24C55.803 24.048 55.675 23.736 55.675 23.304C55.675 22.616 56.027 22.048 56.731 21.6C57.435 21.136 58.347 20.904 59.467 20.904C60.443 20.904 61.371 21.144 62.251 21.624C62.747 21.88 63.147 22.304 63.451 22.896C63.755 23.488 63.907 24.208 63.907 25.056V32.064L65.491 32.256ZM62.227 28.488C61.491 28.088 60.635 27.888 59.659 27.888C58.683 27.888 57.963 28.072 57.499 28.44C57.051 28.808 56.827 29.312 56.827 29.952C56.827 30.592 57.027 31.104 57.427 31.488C57.827 31.856 58.379 32.04 59.083 32.04C60.203 32.04 61.251 31.608 62.227 30.744V28.488ZM74.2019 21.264H77.2979C77.3299 21.904 77.0899 22.24 76.5779 22.272L76.4339 22.296L72.1139 33H70.9859L66.9539 22.392L66.0179 22.248C65.9699 21.592 66.1779 21.264 66.6419 21.264H70.4819V21.432C70.4819 21.56 70.4659 21.656 70.4339 21.72C70.4179 21.768 70.3859 21.84 70.3379 21.936C70.2739 22.128 70.0659 22.24 69.7139 22.272L68.8019 22.344L71.7779 30.72L74.8979 22.392L73.5299 22.248C73.4659 21.592 73.6899 21.264 74.2019 21.264ZM88.9988 32.256C88.9988 33.008 88.5028 33.384 87.5108 33.384C86.5188 33.384 85.9428 32.88 85.7828 31.872C84.7588 32.864 83.5268 33.36 82.0868 33.36C80.9828 33.36 80.1028 33.08 79.4468 32.52C78.8068 31.944 78.4868 31.168 78.4868 30.192C78.4868 29.216 78.8468 28.392 79.5668 27.72C80.2868 27.048 81.4788 26.712 83.1428 26.712C84.1188 26.712 84.9828 26.824 85.7348 27.048V25.152C85.7348 24.24 85.5028 23.512 85.0388 22.968C84.5908 22.408 83.9268 22.128 83.0468 22.128C82.1668 22.128 81.5348 22.368 81.1508 22.848C80.7828 23.312 80.5748 23.856 80.5268 24.48C80.1428 24.512 79.8228 24.432 79.5668 24.24C79.3108 24.048 79.1828 23.736 79.1828 23.304C79.1828 22.616 79.5348 22.048 80.2388 21.6C80.9428 21.136 81.8548 20.904 82.9748 20.904C83.9508 20.904 84.8788 21.144 85.7588 21.624C86.2548 21.88 86.6548 22.304 86.9588 22.896C87.2628 23.488 87.4148 24.208 87.4148 25.056V32.064L88.9988 32.256ZM85.7348 28.488C84.9988 28.088 84.1428 27.888 83.1668 27.888C82.1908 27.888 81.4708 28.072 81.0068 28.44C80.5588 28.808 80.3348 29.312 80.3348 29.952C80.3348 30.592 80.5348 31.104 80.9348 31.488C81.3348 31.856 81.8868 32.04 82.5908 32.04C83.7108 32.04 84.7588 31.608 85.7348 30.744V28.488Z" fill="#707770"/>
</svg>
