<svg width="155" height="45" viewBox="0 0 155 45" fill="none" xmlns="http://www.w3.org/2000/svg">
<rect width="155" height="45" rx="10" fill="white"/>
<rect x="0.5" y="0.5" width="154" height="44" rx="9.5" stroke="black" stroke-opacity="0.5"/>
<path d="M5 19C5 13.4772 9.47715 9 15 9H26C31.5228 9 36 13.4772 36 19V27C36 32.5228 31.5228 37 26 37H15C9.47715 37 5 32.5228 5 27V19Z" fill="#F7DF1E"/>
<path d="M10.3144 27.6946L10.5441 27.569C11.747 26.9115 13.1885 27.7509 14.5594 27.7509C15.5166 27.7509 16.1203 27.4127 16.1203 26.0972V18.6071C16.1203 17.8026 16.7724 17.1505 17.5768 17.1505C18.3813 17.1505 19.0334 17.8026 19.0334 18.6071V26.1343C19.0334 28.8596 17.2647 30.1002 14.6842 30.1002C12.3538 30.1002 11.001 29.01 10.3143 27.6944M20.6157 27.4126C21.9673 26.7058 23.602 27.3964 25.0971 27.6978C25.3302 27.7448 25.5833 27.7698 25.8595 27.7698C27.0666 27.7698 27.8363 27.2247 27.8363 26.4729C27.8363 25.5707 27.0456 25.2511 25.7138 24.725L24.9856 24.4429C22.8838 23.6349 21.4897 22.6199 21.4897 20.4773C21.4897 18.5037 23.1543 17 25.7556 17C27.1063 17 28.1803 17.31 29.0341 18.0684C29.5867 18.5594 29.3657 19.413 28.7263 19.7839C28.1149 20.1386 27.376 19.8571 26.7554 19.519C26.4686 19.3628 26.1437 19.2933 25.7554 19.2933C24.9022 19.2933 24.3612 19.782 24.3612 20.4209C24.3612 21.2103 24.9022 21.53 26.1507 22.0187L26.8789 22.3005C29.3553 23.2592 30.7495 24.2365 30.7495 26.4353C30.7495 28.8038 28.6894 30.1005 25.9218 30.1005C23.2167 30.1005 21.4687 28.9352 20.6156 27.4127" fill="black"/>
<path d="M45.208 13.752H49.984C49.984 13.752 49.984 13.816 49.984 13.944C49.984 14.376 49.872 14.64 49.648 14.736C49.536 14.8 49.4 14.84 49.24 14.856L48.232 14.904V26.88C48.232 28.224 47.912 29.328 47.272 30.192C46.632 31.056 45.768 31.488 44.68 31.488C44.136 31.488 43.672 31.344 43.288 31.056C42.92 30.784 42.736 30.464 42.736 30.096C42.736 29.328 43.128 28.96 43.912 28.992C43.944 29.776 44.336 30.168 45.088 30.168C45.568 30.168 45.92 29.944 46.144 29.496C46.384 29.048 46.504 28.256 46.504 27.12V14.952L44.536 14.808C44.472 14.104 44.696 13.752 45.208 13.752ZM62.491 29.256C62.491 30.008 61.995 30.384 61.003 30.384C60.011 30.384 59.435 29.88 59.275 28.872C58.251 29.864 57.019 30.36 55.579 30.36C54.475 30.36 53.595 30.08 52.939 29.52C52.299 28.944 51.979 28.168 51.979 27.192C51.979 26.216 52.339 25.392 53.059 24.72C53.779 24.048 54.971 23.712 56.635 23.712C57.611 23.712 58.475 23.824 59.227 24.048V22.152C59.227 21.24 58.995 20.512 58.531 19.968C58.083 19.408 57.419 19.128 56.539 19.128C55.659 19.128 55.027 19.368 54.643 19.848C54.275 20.312 54.067 20.856 54.019 21.48C53.635 21.512 53.315 21.432 53.059 21.24C52.803 21.048 52.675 20.736 52.675 20.304C52.675 19.616 53.027 19.048 53.731 18.6C54.435 18.136 55.347 17.904 56.467 17.904C57.443 17.904 58.371 18.144 59.251 18.624C59.747 18.88 60.147 19.304 60.451 19.896C60.755 20.488 60.907 21.208 60.907 22.056V29.064L62.491 29.256ZM59.227 25.488C58.491 25.088 57.635 24.888 56.659 24.888C55.683 24.888 54.963 25.072 54.499 25.44C54.051 25.808 53.827 26.312 53.827 26.952C53.827 27.592 54.027 28.104 54.427 28.488C54.827 28.856 55.379 29.04 56.083 29.04C57.203 29.04 58.251 28.608 59.227 27.744V25.488ZM71.2019 18.264H74.2979C74.3299 18.904 74.0899 19.24 73.5779 19.272L73.4339 19.296L69.1139 30H67.9859L63.9539 19.392L63.0179 19.248C62.9699 18.592 63.1779 18.264 63.6419 18.264H67.4819V18.432C67.4819 18.56 67.4659 18.656 67.4339 18.72C67.4179 18.768 67.3859 18.84 67.3379 18.936C67.2739 19.128 67.0659 19.24 66.7139 19.272L65.8019 19.344L68.7779 27.72L71.8979 19.392L70.5299 19.248C70.4659 18.592 70.6899 18.264 71.2019 18.264ZM85.9988 29.256C85.9988 30.008 85.5028 30.384 84.5108 30.384C83.5188 30.384 82.9428 29.88 82.7828 28.872C81.7588 29.864 80.5268 30.36 79.0868 30.36C77.9828 30.36 77.1028 30.08 76.4468 29.52C75.8068 28.944 75.4868 28.168 75.4868 27.192C75.4868 26.216 75.8468 25.392 76.5668 24.72C77.2868 24.048 78.4788 23.712 80.1428 23.712C81.1188 23.712 81.9828 23.824 82.7348 24.048V22.152C82.7348 21.24 82.5028 20.512 82.0388 19.968C81.5908 19.408 80.9268 19.128 80.0468 19.128C79.1668 19.128 78.5348 19.368 78.1508 19.848C77.7828 20.312 77.5748 20.856 77.5268 21.48C77.1428 21.512 76.8228 21.432 76.5668 21.24C76.3108 21.048 76.1828 20.736 76.1828 20.304C76.1828 19.616 76.5348 19.048 77.2388 18.6C77.9428 18.136 78.8548 17.904 79.9748 17.904C80.9508 17.904 81.8788 18.144 82.7588 18.624C83.2548 18.88 83.6548 19.304 83.9588 19.896C84.2628 20.488 84.4148 21.208 84.4148 22.056V29.064L85.9988 29.256ZM82.7348 25.488C81.9988 25.088 81.1428 24.888 80.1668 24.888C79.1908 24.888 78.4708 25.072 78.0068 25.44C77.5588 25.808 77.3348 26.312 77.3348 26.952C77.3348 27.592 77.5348 28.104 77.9348 28.488C78.3348 28.856 78.8868 29.04 79.5908 29.04C80.7108 29.04 81.7588 28.608 82.7348 27.744V25.488ZM96.1737 14.4C96.6857 14.832 96.9417 15.336 96.9417 15.912C96.9417 16.488 96.7897 16.904 96.4857 17.16C96.1977 17.4 95.8457 17.512 95.4297 17.496C95.4297 15.64 94.4537 14.712 92.5017 14.712C91.5897 14.712 90.8297 14.928 90.2217 15.36C89.6297 15.792 89.3337 16.392 89.3337 17.16C89.3337 18.072 89.7737 18.808 90.6537 19.368C91.1337 19.672 91.5257 19.896 91.8297 20.04C92.1337 20.184 92.6137 20.4 93.2697 20.688C93.9257 20.96 94.4297 21.184 94.7817 21.36C95.1497 21.536 95.5497 21.768 95.9817 22.056C96.4137 22.328 96.7337 22.592 96.9417 22.848C97.4537 23.504 97.7097 24.264 97.7097 25.128C97.7097 26.568 97.1657 27.8 96.0777 28.824C95.0057 29.848 93.5897 30.36 91.8297 30.36C90.5657 30.36 89.4457 30.104 88.4697 29.592C87.5097 29.08 87.0297 28.4 87.0297 27.552C87.0297 27.136 87.1497 26.792 87.3897 26.52C87.6457 26.248 87.9897 26.112 88.4217 26.112C88.6137 27.072 89.0377 27.8 89.6937 28.296C90.3497 28.792 91.2217 29.04 92.3097 29.04C93.3977 29.04 94.2937 28.744 94.9977 28.152C95.7017 27.544 96.0537 26.744 96.0537 25.752C96.0537 24.824 95.7257 24.12 95.0697 23.64C94.5577 23.256 94.0057 22.944 93.4137 22.704C92.8377 22.448 92.3337 22.224 91.9017 22.032C91.4697 21.84 91.0297 21.632 90.5817 21.408C90.1497 21.168 89.6777 20.864 89.1657 20.496C88.1737 19.776 87.6777 18.8 87.6777 17.568C87.6777 16.336 88.1497 15.344 89.0937 14.592C90.0537 13.824 91.2377 13.424 92.6457 13.392C94.1337 13.36 95.3097 13.696 96.1737 14.4ZM104.936 17.904C105.96 17.904 106.768 18.112 107.36 18.528C107.968 18.944 108.272 19.496 108.272 20.184C108.272 21.064 107.824 21.488 106.928 21.456C106.912 20.864 106.704 20.344 106.304 19.896C105.92 19.432 105.336 19.2 104.552 19.2C103.416 19.2 102.544 19.672 101.936 20.616C101.344 21.56 101.048 22.752 101.048 24.192C101.048 25.456 101.296 26.544 101.792 27.456C102.368 28.464 103.36 28.968 104.768 28.968C105.92 28.968 107.016 28.544 108.056 27.696C108.264 27.84 108.368 28.032 108.368 28.272C108.368 28.752 107.912 29.224 107 29.688C106.088 30.136 105.112 30.36 104.072 30.36C102.552 30.36 101.376 29.832 100.544 28.776C99.7279 27.72 99.3039 26.28 99.2719 24.456C99.2399 22.616 99.7279 21.064 100.736 19.8C101.744 18.536 103.144 17.904 104.936 17.904ZM113.748 19.848C114.228 19.336 114.82 18.888 115.523 18.504C116.244 18.104 116.828 17.904 117.276 17.904C117.74 17.904 118.116 18.016 118.404 18.24C118.692 18.448 118.836 18.784 118.836 19.248C118.836 20.08 118.7 20.648 118.428 20.952C118.22 21.128 117.892 21.2 117.444 21.168C117.444 20.016 117.14 19.44 116.532 19.44C115.764 19.44 114.836 19.984 113.748 21.072V28.872L115.812 29.016C115.876 29.672 115.652 30 115.14 30H110.34V29.808C110.34 29.424 110.452 29.184 110.676 29.088C110.788 29.024 110.924 28.984 111.084 28.968L112.092 28.92V19.536L110.796 19.392C110.444 19.36 110.268 19.032 110.268 18.408L113.508 18L113.676 19.848H113.748ZM124.65 30H120.09V29.808C120.09 29.424 120.202 29.184 120.426 29.088C120.538 29.024 120.674 28.984 120.834 28.968L121.842 28.92V19.416L120.594 19.32C120.21 19.272 120.018 18.928 120.018 18.288L123.498 17.904V28.872L125.322 29.016C125.386 29.672 125.162 30 124.65 30ZM123.33 15.72C123.106 15.928 122.818 16.032 122.465 16.032C122.113 16.032 121.826 15.928 121.602 15.72C121.394 15.496 121.29 15.208 121.29 14.856C121.29 14.504 121.394 14.216 121.602 13.992C121.826 13.768 122.113 13.656 122.465 13.656C122.818 13.656 123.106 13.768 123.33 13.992C123.554 14.216 123.666 14.504 123.666 14.856C123.666 15.208 123.554 15.496 123.33 15.72ZM129.618 19.68C130.866 18.496 132.146 17.904 133.458 17.904C134.77 17.904 135.866 18.4 136.746 19.392C137.642 20.368 138.106 21.84 138.138 23.808C138.186 25.76 137.706 27.344 136.698 28.56C135.69 29.76 134.274 30.36 132.45 30.36C131.538 30.36 130.61 30.152 129.666 29.736V34.008L131.49 34.152C131.554 34.808 131.33 35.136 130.818 35.136H126.258V34.944C126.258 34.56 126.37 34.32 126.594 34.224C126.722 34.176 127.194 34.12 128.01 34.056V19.512L126.738 19.368C126.37 19.336 126.186 19.024 126.186 18.432L129.282 18.024L129.618 19.68ZM129.666 27.888C130.498 28.672 131.538 29.064 132.786 29.064C134.034 29.064 134.938 28.592 135.498 27.648C136.074 26.704 136.362 25.528 136.362 24.12C136.362 22.712 136.074 21.56 135.498 20.664C134.938 19.768 134.066 19.32 132.882 19.32C132.29 19.32 131.762 19.44 131.298 19.68C130.834 19.92 130.29 20.296 129.666 20.808V27.888ZM142.982 19.368V26.424C142.982 27.32 143.078 27.968 143.27 28.368C143.478 28.768 143.862 28.968 144.422 28.968C144.998 28.968 145.478 28.904 145.862 28.776C146.246 28.648 146.718 28.36 147.278 27.912C147.566 27.992 147.71 28.232 147.71 28.632C147.71 29.032 147.318 29.424 146.534 29.808C145.766 30.192 145.022 30.384 144.302 30.384C143.182 30.384 142.406 30.064 141.974 29.424C141.542 28.784 141.326 27.856 141.326 26.64V19.368H139.574C139.526 18.632 139.758 18.264 140.27 18.264H141.326V15.408L142.982 15V18.264H147.47C147.518 18.792 147.398 19.16 147.11 19.368H142.982Z" fill="#707770"/>
</svg>
