<svg width="72" height="64" viewBox="0 0 72 64" fill="none" xmlns="http://www.w3.org/2000/svg">
<path d="M49 0C50.525 0 51.9875 0.535564 53.0659 1.48887C54.1442 2.44218 54.75 3.73515 54.75 5.08333V40.6667C54.75 42.0149 54.1442 43.3078 53.0659 44.2611C51.9875 45.2144 50.525 45.75 49 45.75H8.75C7.22501 45.75 5.76247 45.2144 4.68414 44.2611C3.6058 43.3078 3 42.0149 3 40.6667V5.08333C3 3.73515 3.6058 2.44218 4.68414 1.48887C5.76247 0.535564 7.22501 0 8.75 0H49ZM47.5625 39.3958V25.925C47.5625 23.7275 46.575 21.6199 44.8174 20.066C43.0597 18.5121 40.6757 17.6392 38.19 17.6392C35.7462 17.6392 32.9 18.9608 31.52 20.9433V18.1221H23.4988V39.3958H31.52V26.8654C31.52 24.9083 33.3025 23.3071 35.5163 23.3071C36.5837 23.3071 37.6075 23.682 38.3624 24.3493C39.1172 25.0166 39.5413 25.9217 39.5413 26.8654V39.3958H47.5625ZM14.155 14.1317C15.436 14.1317 16.6645 13.6818 17.5703 12.881C18.4761 12.0802 18.985 10.9941 18.985 9.86167C18.985 7.49792 16.8288 5.56625 14.155 5.56625C12.8664 5.56625 11.6305 6.0188 10.7193 6.82435C9.80815 7.6299 9.29625 8.72245 9.29625 9.86167C9.29625 12.2254 11.4813 14.1317 14.155 14.1317M18.1513 39.3958V18.1221H10.1875V39.3958H18.1513V39.3958Z" fill="#5BC159"/>
<path d="M7.084 57.054V59H0.588V58.888C0.588 58.6453 0.653333 58.4867 0.784 58.412C0.849333 58.384 0.928667 58.3653 1.022 58.356L1.666 58.328V50.208L0.63 50.124C0.583333 49.704 0.714 49.494 1.022 49.494H3.808V49.606C3.808 49.858 3.74267 50.012 3.612 50.068C3.54667 50.1053 3.46733 50.1287 3.374 50.138L2.674 50.18V58.3L6.314 58.23L6.468 56.69C6.87867 56.6527 7.084 56.774 7.084 57.054ZM10.7148 59H8.05481V58.888C8.05481 58.664 8.12015 58.524 8.25081 58.468C8.31615 58.4307 8.39548 58.4073 8.48881 58.398L9.07681 58.37V52.826L8.34881 52.77C8.12481 52.742 8.01281 52.5413 8.01281 52.168L10.0428 51.944V58.342L11.1068 58.426C11.1441 58.8087 11.0135 59 10.7148 59ZM9.94481 50.67C9.81415 50.7913 9.64615 50.852 9.44081 50.852C9.23548 50.852 9.06748 50.7913 8.93681 50.67C8.81548 50.5393 8.75481 50.3713 8.75481 50.166C8.75481 49.9607 8.81548 49.7927 8.93681 49.662C9.06748 49.5313 9.23548 49.466 9.44081 49.466C9.64615 49.466 9.81415 49.5313 9.94481 49.662C10.0755 49.7927 10.1408 49.9607 10.1408 50.166C10.1408 50.3713 10.0755 50.5393 9.94481 50.67ZM19.311 59H16.707V58.888C16.707 58.664 16.7724 58.524 16.903 58.468C16.9684 58.4307 17.0477 58.4073 17.141 58.398L17.757 58.37V54.744C17.757 53.4373 17.239 52.784 16.203 52.784C15.8204 52.784 15.475 52.8587 15.167 53.008C14.859 53.1573 14.509 53.3953 14.117 53.722V58.342L15.111 58.426C15.1484 58.8087 15.0224 59 14.733 59H12.101V58.888C12.101 58.5893 12.2504 58.426 12.549 58.398L13.151 58.37V52.854L12.423 52.77C12.199 52.7513 12.087 52.56 12.087 52.196L13.893 51.958L14.075 53.022H14.117C14.873 52.3033 15.6524 51.944 16.455 51.944C17.0804 51.944 17.6124 52.1633 18.051 52.602C18.499 53.0407 18.723 53.7173 18.723 54.632V58.342L19.703 58.426C19.7404 58.8087 19.6097 59 19.311 59ZM24.859 52.154H27.057V52.252C27.057 52.476 26.9916 52.616 26.861 52.672C26.7956 52.7093 26.581 52.7467 26.217 52.784L24.215 54.982L26.665 58.342L27.603 58.426C27.6403 58.8087 27.505 59 27.197 59H26.049L23.599 55.654L22.703 56.634V58.342L23.767 58.426C23.8043 58.8087 23.6783 59 23.389 59H20.715V58.888C20.715 58.664 20.7803 58.524 20.911 58.468C20.9763 58.4307 21.0556 58.4073 21.149 58.398L21.737 58.37V50.166L21.009 50.082C20.785 50.0633 20.673 49.8627 20.673 49.48L22.703 49.228V55.724L25.307 52.812L24.467 52.728C24.4296 52.3453 24.5603 52.154 24.859 52.154ZM33.5825 55.318H29.1865C29.1772 55.4113 29.1725 55.556 29.1725 55.752C29.1725 56.5453 29.3405 57.1893 29.6765 57.684C30.0125 58.1693 30.5352 58.412 31.2445 58.412C31.9538 58.412 32.6305 58.16 33.2745 57.656C33.3865 57.7493 33.4425 57.866 33.4425 58.006C33.4425 58.2673 33.1858 58.5333 32.6725 58.804C32.1685 59.0747 31.5992 59.21 30.9645 59.21C30.0965 59.21 29.4012 58.9253 28.8785 58.356C28.3652 57.7867 28.1085 56.9187 28.1085 55.752C28.1085 54.5853 28.4165 53.6613 29.0325 52.98C29.6485 52.2893 30.3765 51.944 31.2165 51.944C32.0565 51.944 32.6632 52.21 33.0365 52.742C33.4098 53.274 33.5918 53.9087 33.5825 54.646V55.318ZM32.5605 54.688C32.5605 54.0627 32.4392 53.568 32.1965 53.204C31.9538 52.8307 31.5992 52.644 31.1325 52.644C30.6752 52.644 30.2832 52.826 29.9565 53.19C29.6298 53.554 29.4012 54.0533 29.2705 54.688H32.5605ZM40.5256 59.21C39.9096 59.21 39.5783 58.8693 39.5316 58.188C38.8503 58.8693 38.1176 59.21 37.3336 59.21C36.5496 59.21 35.8963 58.9253 35.3736 58.356C34.8603 57.7773 34.5896 56.9187 34.5616 55.78C34.5336 54.632 34.8136 53.708 35.4016 53.008C35.999 52.2987 36.8296 51.944 37.8936 51.944C38.463 51.944 39.0043 52.0653 39.5176 52.308V50.166L38.7896 50.082C38.5656 50.0633 38.4536 49.8627 38.4536 49.48L40.4836 49.228V58.44L41.3796 58.552C41.361 58.9907 41.0763 59.21 40.5256 59.21ZM39.5176 53.386C39.0136 52.9287 38.4023 52.7 37.6836 52.7C36.9743 52.7 36.447 52.9753 36.1016 53.526C35.7656 54.0673 35.5976 54.7487 35.5976 55.57C35.5976 56.3913 35.7656 57.068 36.1016 57.6C36.4376 58.1227 36.951 58.384 37.6416 58.384C37.987 58.384 38.295 58.314 38.5656 58.174C38.8363 58.034 39.1536 57.81 39.5176 57.502V53.386ZM48.695 59H45.965V58.888C45.965 58.6453 46.0303 58.4867 46.161 58.412C46.2263 58.384 46.3056 58.3653 46.399 58.356L47.043 58.328V50.222L46.021 50.138C45.9836 49.7273 46.1096 49.522 46.399 49.522H49.129V49.634C49.129 49.886 49.0636 50.04 48.933 50.096C48.8676 50.1333 48.7883 50.1567 48.695 50.166L48.051 50.194V58.3L49.073 58.384C49.1103 58.7947 48.9843 59 48.695 59ZM57.5649 59H54.9609V58.888C54.9609 58.664 55.0263 58.524 55.1569 58.468C55.2223 58.4307 55.3016 58.4073 55.3949 58.398L56.0109 58.37V54.744C56.0109 53.4373 55.4929 52.784 54.4569 52.784C54.0743 52.784 53.7289 52.8587 53.4209 53.008C53.1129 53.1573 52.7629 53.3953 52.3709 53.722V58.342L53.3649 58.426C53.4023 58.8087 53.2763 59 52.9869 59H50.3549V58.888C50.3549 58.5893 50.5043 58.426 50.8029 58.398L51.4049 58.37V52.854L50.6769 52.77C50.4529 52.7513 50.3409 52.56 50.3409 52.196L52.1469 51.958L52.3289 53.022H52.3709C53.1269 52.3033 53.9063 51.944 54.7089 51.944C55.3343 51.944 55.8663 52.1633 56.3049 52.602C56.7529 53.0407 56.9769 53.7173 56.9769 54.632V58.342L57.9569 58.426C57.9943 58.8087 57.8636 59 57.5649 59Z" fill="#37B34A"/>
</svg>
