<svg width="17" height="17" viewBox="0 0 17 17" fill="none" xmlns="http://www.w3.org/2000/svg">
<path d="M15.1916 16.6076L9.47661 10.8916C8.2504 11.7634 6.74143 12.1427 5.24875 11.9543C3.75608 11.7659 2.38865 11.0236 1.41748 9.87454C0.446306 8.72546 -0.0577304 7.25345 0.00526641 5.75026C0.0682632 4.24707 0.693695 2.8224 1.75761 1.75861C2.82123 0.694358 4.2459 0.0685788 5.7492 0.00531098C7.2525 -0.0579569 8.72471 0.445906 9.874 1.41702C11.0233 2.38814 11.7658 3.75562 11.9542 5.24841C12.1427 6.74119 11.7634 8.2503 10.8916 9.47661L16.6066 15.1926L15.1926 16.6066L15.1916 16.6076ZM5.99961 2.00061C5.07967 2.0004 4.18777 2.31728 3.47419 2.89788C2.76061 3.47847 2.26896 4.28728 2.08208 5.18804C1.8952 6.0888 2.02452 7.02644 2.44824 7.84299C2.87196 8.65954 3.56419 9.30508 4.40828 9.67085C5.25238 10.0366 6.19676 10.1002 7.0823 9.85103C7.96784 9.60182 8.74041 9.05498 9.26985 8.30266C9.79929 7.55034 10.0532 6.63852 9.98888 5.72084C9.92454 4.80315 9.54585 3.93569 8.91661 3.26461L9.52161 3.86461L8.83961 3.18461L8.82761 3.17261C8.45718 2.7999 8.01649 2.5044 7.53105 2.30322C7.04561 2.10204 6.52508 1.99919 5.99961 2.00061Z" fill="white"/>
</svg>
