<svg width="73" height="28" viewBox="0 0 73 28" fill="none" xmlns="http://www.w3.org/2000/svg">
<rect width="72.5" height="21.25" rx="10.625" fill="#5BC159"/>
<path d="M21.245 4.595H23.915C23.915 4.595 23.915 4.635 23.915 4.715C23.915 4.985 23.845 5.15 23.705 5.21C23.635 5.25 23.55 5.275 23.45 5.285L22.745 5.315V14.585C22.495 14.695 22.235 14.75 21.965 14.75L16.61 6.5V14L17.705 14.09C17.745 14.53 17.61 14.75 17.3 14.75H14.63C14.63 14.75 14.63 14.71 14.63 14.63C14.63 14.37 14.7 14.2 14.84 14.12C14.91 14.09 14.995 14.07 15.095 14.06L15.785 14.03V5.345L14.69 5.255C14.65 4.815 14.785 4.595 15.095 4.595H16.685L21.935 12.695V5.345L20.84 5.255C20.8 4.815 20.935 4.595 21.245 4.595ZM30.7186 10.805H26.0086C25.9986 10.905 25.9936 11.06 25.9936 11.27C25.9936 12.12 26.1736 12.81 26.5336 13.34C26.8936 13.86 27.4536 14.12 28.2136 14.12C28.9736 14.12 29.6986 13.85 30.3886 13.31C30.5086 13.41 30.5686 13.535 30.5686 13.685C30.5686 13.965 30.2936 14.25 29.7436 14.54C29.2036 14.83 28.5936 14.975 27.9136 14.975C26.9836 14.975 26.2386 14.67 25.6786 14.06C25.1286 13.45 24.8536 12.52 24.8536 11.27C24.8536 10.02 25.1836 9.03 25.8436 8.3C26.5036 7.56 27.2836 7.19 28.1836 7.19C29.0836 7.19 29.7336 7.475 30.1336 8.045C30.5336 8.615 30.7286 9.295 30.7186 10.085V10.805ZM29.6236 10.13C29.6236 9.46 29.4936 8.93 29.2336 8.54C28.9736 8.14 28.5936 7.94 28.0936 7.94C27.6036 7.94 27.1836 8.135 26.8336 8.525C26.4836 8.915 26.2386 9.45 26.0986 10.13H29.6236ZM39.7476 7.415H41.6826C41.7226 7.815 41.5776 8.025 41.2476 8.045L41.1576 8.06L38.6676 14.75H38.0376L36.4176 10.1L34.6776 14.75H34.0626L31.8426 8.12L31.2426 8.03C31.2126 7.62 31.3426 7.415 31.6326 7.415H34.0326V7.52C34.0326 7.6 34.0226 7.66 34.0026 7.7C33.9926 7.73 33.9726 7.775 33.9426 7.835C33.9026 7.955 33.7726 8.025 33.5526 8.045L32.9976 8.09L34.5426 13.31L36.3876 8.045H36.8976L38.5176 13.19L40.1976 8.12L39.3426 8.03C39.3026 7.62 39.4376 7.415 39.7476 7.415ZM48.1941 10.805H43.4841C43.4741 10.905 43.4691 11.06 43.4691 11.27C43.4691 12.12 43.6491 12.81 44.0091 13.34C44.3691 13.86 44.9291 14.12 45.6891 14.12C46.4491 14.12 47.1741 13.85 47.8641 13.31C47.9841 13.41 48.0441 13.535 48.0441 13.685C48.0441 13.965 47.7691 14.25 47.2191 14.54C46.6791 14.83 46.0691 14.975 45.3891 14.975C44.4591 14.975 43.7141 14.67 43.1541 14.06C42.6041 13.45 42.3291 12.52 42.3291 11.27C42.3291 10.02 42.6591 9.03 43.3191 8.3C43.9791 7.56 44.7591 7.19 45.6591 7.19C46.5591 7.19 47.2091 7.475 47.6091 8.045C48.0091 8.615 48.2041 9.295 48.1941 10.085V10.805ZM47.0991 10.13C47.0991 9.46 46.9691 8.93 46.7091 8.54C46.4491 8.14 46.0691 7.94 45.5691 7.94C45.0791 7.94 44.6591 8.135 44.3091 8.525C43.9591 8.915 43.7141 9.45 43.5741 10.13H47.0991ZM49.2732 9.29C49.2832 8.64 49.5482 8.125 50.0682 7.745C50.5882 7.365 51.1532 7.18 51.7632 7.19C52.3832 7.2 52.8932 7.31 53.2932 7.52C53.6932 7.72 53.8882 8.02 53.8782 8.42C53.8682 8.69 53.7732 8.885 53.5932 9.005C53.4132 9.125 53.2182 9.175 53.0082 9.155C53.0182 8.805 52.9082 8.52 52.6782 8.3C52.4582 8.08 52.1332 7.965 51.7032 7.955C51.2732 7.945 50.9132 8.045 50.6232 8.255C50.3432 8.455 50.1982 8.715 50.1882 9.035C50.1782 9.355 50.3182 9.615 50.6082 9.815C50.9082 10.005 51.3282 10.205 51.8682 10.415C52.4082 10.625 52.7732 10.78 52.9632 10.88C53.1632 10.97 53.3782 11.095 53.6082 11.255C54.0382 11.555 54.2432 12.01 54.2232 12.62C54.2132 13.23 53.9482 13.78 53.4282 14.27C52.9082 14.75 52.2132 14.985 51.3432 14.975C50.7232 14.955 50.1782 14.825 49.7082 14.585C49.2382 14.335 49.0032 13.995 49.0032 13.565C49.0132 13.335 49.0882 13.155 49.2282 13.025C49.3782 12.885 49.5582 12.82 49.7682 12.83C49.8482 13.24 50.0482 13.57 50.3682 13.82C50.6982 14.07 51.1032 14.2 51.5832 14.21C52.0632 14.21 52.4632 14.1 52.7832 13.88C53.1032 13.65 53.2682 13.35 53.2782 12.98C53.2882 12.61 53.1732 12.33 52.9332 12.14C52.7032 11.95 52.3682 11.775 51.9282 11.615C51.4882 11.445 51.1782 11.325 50.9982 11.255C50.8282 11.185 50.6132 11.08 50.3532 10.94C50.1032 10.8 49.9082 10.66 49.7682 10.52C49.4382 10.17 49.2732 9.76 49.2732 9.29ZM57.0212 8.105V12.515C57.0212 13.075 57.0812 13.48 57.2012 13.73C57.3312 13.98 57.5712 14.105 57.9212 14.105C58.2812 14.105 58.5812 14.065 58.8212 13.985C59.0612 13.905 59.3562 13.725 59.7062 13.445C59.8862 13.495 59.9762 13.645 59.9762 13.895C59.9762 14.145 59.7312 14.39 59.2412 14.63C58.7612 14.87 58.2962 14.99 57.8462 14.99C57.1462 14.99 56.6612 14.79 56.3912 14.39C56.1212 13.99 55.9862 13.41 55.9862 12.65V8.105H54.8912C54.8612 7.645 55.0062 7.415 55.3262 7.415H55.9862V5.63L57.0212 5.375V7.415H59.8262C59.8562 7.745 59.7812 7.975 59.6012 8.105H57.0212Z" fill="white"/>
</svg>
