<svg width="124" height="45" viewBox="0 0 124 45" fill="none" xmlns="http://www.w3.org/2000/svg">
<rect width="122" height="45" rx="10" fill="white"/>
<rect x="0.5" y="0.5" width="121" height="44" rx="9.5" stroke="black" stroke-opacity="0.5"/>
<path d="M17.6088 36.7466C17.2172 36.7466 16.8518 36.6483 16.5124 36.4763L13.0404 34.5351C12.5183 34.2648 12.7793 34.1665 12.936 34.1174C13.6408 33.8962 13.7713 33.8471 14.5022 33.4539C14.5806 33.4047 14.685 33.4293 14.7633 33.4784L17.4261 34.9774C17.5305 35.0265 17.661 35.0265 17.7393 34.9774L28.1554 29.3013C28.2598 29.2521 28.312 29.1539 28.312 29.031V17.7032C28.312 17.5803 28.2598 17.4821 28.1554 17.4329L17.7393 11.7813C17.6349 11.7322 17.5044 11.7322 17.4261 11.7813L7.01002 17.433C6.9056 17.4822 6.8534 17.605 6.8534 17.7033V29.031C6.8534 29.1293 6.9056 29.2521 7.01002 29.3013L9.85557 30.8492C11.3958 31.5864 12.3616 30.7264 12.3616 29.8664V18.686C12.3616 18.5386 12.4922 18.3912 12.6749 18.3912H14.0063C14.163 18.3912 14.3196 18.514 14.3196 18.686V29.8663C14.3196 31.8075 13.197 32.9378 11.2391 32.9378C10.6387 32.9378 10.1688 32.9378 8.83751 32.3235L6.09638 30.8492C5.41767 30.4806 5 29.7926 5 29.0555V17.7279C5 16.9907 5.41767 16.3027 6.09638 15.9341L16.5124 10.258C17.165 9.914 18.0526 9.914 18.7052 10.258L29.1212 15.9341C29.7999 16.3027 30.2176 16.9906 30.2176 17.7279V29.0556C30.2176 29.7927 29.7999 30.4807 29.1212 30.8492L18.7052 36.5255C18.3658 36.673 17.9743 36.7467 17.6088 36.7467V36.7466ZM20.8197 28.9572C16.2513 28.9572 15.3115 26.9915 15.3115 25.3206C15.3115 25.1732 15.4421 25.0257 15.6248 25.0257H16.9822C17.1388 25.0257 17.2695 25.124 17.2695 25.2714C17.4783 26.5737 18.0787 27.2126 20.8458 27.2126C23.0387 27.2126 23.9785 26.7458 23.9785 25.6401C23.9785 25.0012 23.7175 24.5343 20.2976 24.2148C17.4522 23.9445 15.677 23.3548 15.677 21.2171C15.677 19.2267 17.4521 18.0473 20.4282 18.0473C23.7696 18.0473 25.4143 19.1284 25.6231 21.4873C25.6231 21.561 25.597 21.6347 25.5448 21.7085C25.4926 21.7576 25.4143 21.8067 25.3359 21.8067H23.9785C23.8479 21.8067 23.7175 21.7085 23.6913 21.5856C23.378 20.2342 22.5688 19.7919 20.4282 19.7919C18.0266 19.7919 17.7393 20.5782 17.7393 21.1679C17.7393 21.8806 18.0787 22.1016 21.3157 22.4947C24.5267 22.8879 26.0408 23.4531 26.0408 25.5663C26.0146 27.7286 24.1351 28.9572 20.8197 28.9572Z" fill="#539E43"/>
<path d="M55.592 16.752H59.864C59.864 16.752 59.864 16.816 59.864 16.944C59.864 17.376 59.752 17.64 59.528 17.736C59.416 17.8 59.28 17.84 59.12 17.856L57.992 17.904V32.736C57.592 32.912 57.176 33 56.744 33L48.176 19.8V31.8L49.928 31.944C49.992 32.648 49.776 33 49.28 33H45.008C45.008 33 45.008 32.936 45.008 32.808C45.008 32.392 45.12 32.12 45.344 31.992C45.456 31.944 45.592 31.912 45.752 31.896L46.856 31.848V17.952L45.104 17.808C45.04 17.104 45.256 16.752 45.752 16.752H48.296L56.696 29.712V17.952L54.944 17.808C54.88 17.104 55.096 16.752 55.592 16.752ZM66.5497 22.152C65.4617 22.152 64.6217 22.624 64.0297 23.568C63.4377 24.512 63.1417 25.72 63.1417 27.192C63.1417 28.648 63.4297 29.84 64.0057 30.768C64.5817 31.68 65.4137 32.136 66.5017 32.136C67.5897 32.12 68.4297 31.656 69.0217 30.744C69.6137 29.832 69.9097 28.656 69.9097 27.216C69.9097 25.76 69.6217 24.552 69.0457 23.592C68.4857 22.616 67.6537 22.136 66.5497 22.152ZM66.6937 20.904C67.9097 20.904 69.0057 21.288 69.9817 22.056C70.4937 22.472 70.9017 23.08 71.2057 23.88C71.5257 24.68 71.6857 25.64 71.6857 26.76C71.7177 28.744 71.2537 30.344 70.2937 31.56C69.3337 32.76 68.0377 33.36 66.4057 33.36C64.7737 33.36 63.5337 32.848 62.6857 31.824C61.8377 30.8 61.3977 29.32 61.3657 27.384C61.3497 25.448 61.8217 23.888 62.7817 22.704C63.7577 21.504 65.0617 20.904 66.6937 20.904ZM83.7772 33.36C82.7212 33.36 82.1532 32.776 82.0732 31.608C80.9052 32.776 79.6492 33.36 78.3052 33.36C76.9612 33.36 75.8412 32.872 74.9452 31.896C74.0652 30.904 73.6012 29.432 73.5532 27.48C73.5052 25.512 73.9852 23.928 74.9932 22.728C76.0172 21.512 77.4412 20.904 79.2652 20.904C80.2412 20.904 81.1692 21.112 82.0492 21.528V17.856L80.8012 17.712C80.4172 17.68 80.2252 17.336 80.2252 16.68L83.7052 16.248V32.04L85.2412 32.232C85.2092 32.984 84.7212 33.36 83.7772 33.36ZM82.0492 23.376C81.1852 22.592 80.1372 22.2 78.9052 22.2C77.6892 22.2 76.7852 22.672 76.1932 23.616C75.6172 24.544 75.3292 25.712 75.3292 27.12C75.3292 28.528 75.6172 29.688 76.1932 30.6C76.7692 31.496 77.6492 31.944 78.8332 31.944C79.4252 31.944 79.9532 31.824 80.4172 31.584C80.8812 31.344 81.4252 30.96 82.0492 30.432V23.376ZM95.9919 26.688H88.4559C88.4399 26.848 88.4319 27.096 88.4319 27.432C88.4319 28.792 88.7199 29.896 89.2959 30.744C89.8719 31.576 90.7679 31.992 91.9839 31.992C93.1999 31.992 94.3599 31.56 95.4639 30.696C95.6559 30.856 95.7519 31.056 95.7519 31.296C95.7519 31.744 95.3119 32.2 94.4319 32.664C93.5679 33.128 92.5919 33.36 91.5039 33.36C90.0159 33.36 88.8239 32.872 87.9279 31.896C87.0479 30.92 86.6079 29.432 86.6079 27.432C86.6079 25.432 87.1359 23.848 88.1919 22.68C89.2479 21.496 90.4959 20.904 91.9359 20.904C93.3759 20.904 94.4159 21.36 95.0559 22.272C95.6959 23.184 96.0079 24.272 95.9919 25.536V26.688ZM94.2399 25.608C94.2399 24.536 94.0319 23.688 93.6159 23.064C93.1999 22.424 92.5919 22.104 91.7919 22.104C91.0079 22.104 90.3359 22.416 89.7759 23.04C89.2159 23.664 88.8239 24.52 88.5999 25.608H94.2399ZM99.9264 33C99.6864 33.24 99.3824 33.36 99.0144 33.36C98.6464 33.36 98.3424 33.24 98.1024 33C97.8624 32.744 97.7424 32.432 97.7424 32.064C97.7424 31.696 97.8624 31.392 98.1024 31.152C98.3424 30.912 98.6464 30.792 99.0144 30.792C99.3824 30.792 99.6864 30.912 99.9264 31.152C100.166 31.392 100.286 31.696 100.286 32.064C100.286 32.432 100.166 32.744 99.9264 33ZM103.441 16.992C103.665 16.768 103.953 16.656 104.305 16.656C104.657 16.656 104.945 16.768 105.169 16.992C105.393 17.216 105.505 17.504 105.505 17.856C105.505 18.208 105.393 18.496 105.169 18.72C104.945 18.928 104.657 19.032 104.305 19.032C103.953 19.032 103.665 18.928 103.441 18.72C103.233 18.496 103.129 18.208 103.129 17.856C103.129 17.504 103.233 17.216 103.441 16.992ZM105.313 32.784C105.313 34.48 105.001 35.84 104.377 36.864C103.769 37.904 102.841 38.424 101.593 38.424C101.129 38.424 100.705 38.312 100.321 38.088C99.9367 37.864 99.7447 37.552 99.7447 37.152C99.7447 36.768 99.8487 36.48 100.057 36.288C100.265 36.112 100.537 36.032 100.873 36.048C100.905 36.768 101.281 37.128 102.001 37.128C102.545 37.128 102.953 36.896 103.225 36.432C103.513 35.968 103.657 35.144 103.657 33.96V22.416L102.385 22.296C102.017 22.248 101.833 21.912 101.833 21.288L105.313 20.904V32.784ZM108.265 24.264C108.281 23.224 108.705 22.4 109.537 21.792C110.369 21.184 111.273 20.888 112.249 20.904C113.241 20.92 114.057 21.096 114.697 21.432C115.337 21.752 115.649 22.232 115.633 22.872C115.617 23.304 115.465 23.616 115.177 23.808C114.889 24 114.577 24.08 114.241 24.048C114.257 23.488 114.081 23.032 113.713 22.68C113.361 22.328 112.841 22.144 112.153 22.128C111.465 22.112 110.889 22.272 110.425 22.608C109.977 22.928 109.745 23.344 109.729 23.856C109.713 24.368 109.937 24.784 110.401 25.104C110.881 25.408 111.553 25.728 112.417 26.064C113.281 26.4 113.865 26.648 114.169 26.808C114.489 26.952 114.833 27.152 115.201 27.408C115.889 27.888 116.217 28.616 116.185 29.592C116.169 30.568 115.745 31.448 114.913 32.232C114.081 33 112.969 33.376 111.577 33.36C110.585 33.328 109.713 33.12 108.961 32.736C108.209 32.336 107.833 31.792 107.833 31.104C107.849 30.736 107.969 30.448 108.193 30.24C108.433 30.016 108.721 29.912 109.057 29.928C109.185 30.584 109.505 31.112 110.017 31.512C110.545 31.912 111.193 32.12 111.961 32.136C112.729 32.136 113.369 31.96 113.881 31.608C114.393 31.24 114.657 30.76 114.673 30.168C114.689 29.576 114.505 29.128 114.121 28.824C113.753 28.52 113.217 28.24 112.513 27.984C111.809 27.712 111.313 27.52 111.025 27.408C110.753 27.296 110.409 27.128 109.993 26.904C109.593 26.68 109.281 26.456 109.057 26.232C108.529 25.672 108.265 25.016 108.265 24.264Z" fill="#707770"/>
</svg>
