<svg width="73" height="27" viewBox="0 0 73 27" fill="none" xmlns="http://www.w3.org/2000/svg">
<rect width="72.5" height="21.25" rx="10.625" fill="#5BC159"/>
<path d="M18.83 4.415C17.78 4.425 16.995 4.835 16.475 5.645C15.955 6.455 15.695 7.55 15.695 8.93C15.695 10.3 15.945 11.395 16.445 12.215C16.955 13.025 17.735 13.43 18.785 13.43C19.835 13.42 20.625 13.015 21.155 12.215C21.685 11.405 21.95 10.315 21.95 8.945C21.95 7.565 21.69 6.465 21.17 5.645C20.66 4.815 19.88 4.405 18.83 4.415ZM18.995 3.62C19.805 3.62 20.52 3.82 21.14 4.22C22.38 5.02 23.015 6.5 23.045 8.66C23.065 10.35 22.685 11.7 21.905 12.71C21.135 13.72 20.02 14.225 18.56 14.225C17.34 14.225 16.38 13.785 15.68 12.905C14.98 12.025 14.615 10.775 14.585 9.155C14.555 7.535 14.93 6.21 15.71 5.18C16.49 4.14 17.585 3.62 18.995 3.62ZM27.134 14H24.314V13.88C24.314 13.56 24.474 13.385 24.794 13.355L25.439 13.325V4.52L24.659 4.445C24.419 4.415 24.299 4.205 24.299 3.815L26.474 3.53V13.295L27.539 13.385C27.579 13.795 27.444 14 27.134 14ZM34.891 14.225C34.231 14.225 33.876 13.86 33.826 13.13C33.096 13.86 32.311 14.225 31.471 14.225C30.631 14.225 29.931 13.92 29.371 13.31C28.821 12.69 28.531 11.77 28.501 10.55C28.471 9.32 28.771 8.33 29.401 7.58C30.041 6.82 30.931 6.44 32.071 6.44C32.681 6.44 33.261 6.57 33.811 6.83V4.535L33.031 4.445C32.791 4.425 32.671 4.21 32.671 3.8L34.846 3.53V13.4L35.806 13.52C35.786 13.99 35.481 14.225 34.891 14.225ZM33.811 7.985C33.271 7.495 32.616 7.25 31.846 7.25C31.086 7.25 30.521 7.545 30.151 8.135C29.791 8.715 29.611 9.445 29.611 10.325C29.611 11.205 29.791 11.93 30.151 12.5C30.511 13.06 31.061 13.34 31.801 13.34C32.171 13.34 32.501 13.265 32.791 13.115C33.081 12.965 33.421 12.725 33.811 12.395V7.985ZM42.5252 10.055H37.8152C37.8052 10.155 37.8002 10.31 37.8002 10.52C37.8002 11.37 37.9802 12.06 38.3402 12.59C38.7002 13.11 39.2602 13.37 40.0202 13.37C40.7802 13.37 41.5052 13.1 42.1952 12.56C42.3152 12.66 42.3752 12.785 42.3752 12.935C42.3752 13.215 42.1002 13.5 41.5502 13.79C41.0102 14.08 40.4002 14.225 39.7202 14.225C38.7902 14.225 38.0452 13.92 37.4852 13.31C36.9352 12.7 36.6602 11.77 36.6602 10.52C36.6602 9.27 36.9902 8.28 37.6502 7.55C38.3102 6.81 39.0902 6.44 39.9902 6.44C40.8902 6.44 41.5402 6.725 41.9402 7.295C42.3402 7.865 42.5352 8.545 42.5252 9.335V10.055ZM41.4302 9.38C41.4302 8.71 41.3002 8.18 41.0402 7.79C40.7802 7.39 40.4002 7.19 39.9002 7.19C39.4102 7.19 38.9902 7.385 38.6402 7.775C38.2902 8.165 38.0452 8.7 37.9052 9.38H41.4302ZM43.6043 8.54C43.6143 7.89 43.8793 7.375 44.3993 6.995C44.9193 6.615 45.4843 6.43 46.0943 6.44C46.7143 6.45 47.2243 6.56 47.6243 6.77C48.0243 6.97 48.2193 7.27 48.2093 7.67C48.1993 7.94 48.1043 8.135 47.9243 8.255C47.7443 8.375 47.5493 8.425 47.3393 8.405C47.3493 8.055 47.2393 7.77 47.0093 7.55C46.7893 7.33 46.4643 7.215 46.0343 7.205C45.6043 7.195 45.2443 7.295 44.9543 7.505C44.6743 7.705 44.5293 7.965 44.5193 8.285C44.5093 8.605 44.6493 8.865 44.9393 9.065C45.2393 9.255 45.6593 9.455 46.1993 9.665C46.7393 9.875 47.1043 10.03 47.2943 10.13C47.4943 10.22 47.7093 10.345 47.9393 10.505C48.3693 10.805 48.5743 11.26 48.5543 11.87C48.5443 12.48 48.2793 13.03 47.7593 13.52C47.2393 14 46.5443 14.235 45.6743 14.225C45.0543 14.205 44.5093 14.075 44.0393 13.835C43.5693 13.585 43.3343 13.245 43.3343 12.815C43.3443 12.585 43.4193 12.405 43.5593 12.275C43.7093 12.135 43.8893 12.07 44.0993 12.08C44.1793 12.49 44.3793 12.82 44.6993 13.07C45.0293 13.32 45.4343 13.45 45.9143 13.46C46.3943 13.46 46.7943 13.35 47.1143 13.13C47.4343 12.9 47.5993 12.6 47.6093 12.23C47.6193 11.86 47.5043 11.58 47.2643 11.39C47.0343 11.2 46.6993 11.025 46.2593 10.865C45.8193 10.695 45.5093 10.575 45.3293 10.505C45.1593 10.435 44.9443 10.33 44.6843 10.19C44.4343 10.05 44.2393 9.91 44.0993 9.77C43.7693 9.42 43.6043 9.01 43.6043 8.54ZM51.3522 7.355V11.765C51.3522 12.325 51.4122 12.73 51.5322 12.98C51.6622 13.23 51.9022 13.355 52.2522 13.355C52.6122 13.355 52.9122 13.315 53.1522 13.235C53.3922 13.155 53.6872 12.975 54.0372 12.695C54.2172 12.745 54.3072 12.895 54.3072 13.145C54.3072 13.395 54.0622 13.64 53.5722 13.88C53.0922 14.12 52.6272 14.24 52.1772 14.24C51.4772 14.24 50.9922 14.04 50.7222 13.64C50.4522 13.24 50.3172 12.66 50.3172 11.9V7.355H49.2222C49.1922 6.895 49.3372 6.665 49.6572 6.665H50.3172V4.88L51.3522 4.625V6.665H54.1572C54.1872 6.995 54.1122 7.225 53.9322 7.355H51.3522Z" fill="white"/>
</svg>
