<svg width="43" height="35" viewBox="0 0 43 35" fill="none" xmlns="http://www.w3.org/2000/svg">
<path fill-rule="evenodd" clip-rule="evenodd" d="M21.5 31.7188C24.5667 31.7224 27.58 31.0658 30.2344 29.8156V25.1562C30.2344 23.8509 29.5973 22.599 28.4633 21.676C27.3293 20.7529 25.7912 20.2344 24.1875 20.2344H18.8125C17.2088 20.2344 15.6707 20.7529 14.5367 21.676C13.4027 22.599 12.7656 23.8509 12.7656 25.1562V29.8156C15.42 31.0658 18.4333 31.7224 21.5 31.7188V31.7188ZM34.2656 25.1562V27.2059C36.5895 25.181 38.1358 22.6475 38.7145 19.9168C39.2932 17.1862 38.879 14.3774 37.5229 11.8357C36.1667 9.29411 33.9277 7.1304 31.0811 5.61059C28.2345 4.09079 24.9044 3.28112 21.5 3.28112C18.0956 3.28112 14.7655 4.09079 11.9189 5.61059C9.07226 7.1304 6.83327 9.29411 5.47712 11.8357C4.12098 14.3774 3.70679 17.1862 4.28547 19.9168C4.86415 22.6475 6.41048 25.181 8.73438 27.2059V25.1562C8.73435 23.465 9.37619 21.8151 10.5721 20.4321C11.768 19.0492 13.4596 18.0006 15.4155 17.43C14.4007 16.4799 13.743 15.3122 13.521 14.0663C13.299 12.8203 13.5219 11.5487 14.1633 10.4031C14.8047 9.25742 15.8374 8.28612 17.1383 7.60503C18.4391 6.92393 19.9533 6.56179 21.5 6.56179C23.0467 6.56179 24.5609 6.92393 25.8617 7.60503C27.1626 8.28612 28.1953 9.25742 28.8367 10.4031C29.4781 11.5487 29.701 12.8203 29.479 14.0663C29.257 15.3122 28.5993 16.4799 27.5845 17.43C29.5404 18.0006 31.232 19.0492 32.4279 20.4321C33.6238 21.8151 34.2656 23.465 34.2656 25.1562V25.1562ZM21.5 35C27.2022 35 32.6708 33.1563 36.7028 29.8744C40.7348 26.5925 43 22.1413 43 17.5C43 12.8587 40.7348 8.40752 36.7028 5.12563C32.6708 1.84375 27.2022 0 21.5 0C15.7978 0 10.3292 1.84375 6.2972 5.12563C2.26517 8.40752 0 12.8587 0 17.5C0 22.1413 2.26517 26.5925 6.2972 29.8744C10.3292 33.1563 15.7978 35 21.5 35V35ZM25.5312 13.125C25.5312 13.9952 25.1065 14.8298 24.3505 15.4452C23.5945 16.0605 22.5692 16.4062 21.5 16.4062C20.4308 16.4062 19.4055 16.0605 18.6495 15.4452C17.8935 14.8298 17.4688 13.9952 17.4688 13.125C17.4688 12.2548 17.8935 11.4202 18.6495 10.8048C19.4055 10.1895 20.4308 9.84375 21.5 9.84375C22.5692 9.84375 23.5945 10.1895 24.3505 10.8048C25.1065 11.4202 25.5312 12.2548 25.5312 13.125V13.125Z" fill="#5BC159"/>
</svg>
