<svg width="119" height="45" viewBox="0 0 119 45" fill="none" xmlns="http://www.w3.org/2000/svg">
<rect width="117" height="45" rx="10" fill="white"/>
<rect x="0.5" y="0.5" width="116" height="44" rx="9.5" stroke="black" stroke-opacity="0.5"/>
<path d="M40.728 15.704H45.768C47.736 15.704 49.224 16.128 50.232 16.976C51.24 17.808 51.744 18.896 51.744 20.24C51.744 22.064 51.144 23.392 49.944 24.224C48.76 25.056 47.168 25.472 45.168 25.472C44.64 25.472 44.112 25.448 43.584 25.4V30.8L45.408 30.944C45.472 31.648 45.248 32 44.736 32H40.008C40.008 32 40.008 31.936 40.008 31.808C40.008 31.392 40.12 31.12 40.344 30.992C40.456 30.944 40.592 30.912 40.752 30.896L41.856 30.848V16.904L40.104 16.76C40.056 16.056 40.264 15.704 40.728 15.704ZM44.952 24.344C48.248 24.344 49.896 23.072 49.896 20.528C49.896 17.824 48.224 16.576 44.88 16.784L43.584 16.856V24.296C43.904 24.328 44.36 24.344 44.952 24.344ZM60.8588 20.264H64.0268C64.0108 20.312 64.0108 20.376 64.0268 20.456C64.0428 20.52 64.0348 20.6 64.0028 20.696C63.9868 20.776 63.9628 20.856 63.9308 20.936C63.8348 21.128 63.5308 21.248 63.0188 21.296L58.9148 31.4H58.9388C58.5068 32.552 58.0668 33.544 57.6188 34.376C57.1868 35.208 56.8428 35.776 56.5868 36.08C55.9628 36.864 55.3468 37.256 54.7388 37.256C54.1308 37.256 53.6828 37.128 53.3948 36.872C53.1068 36.632 52.9628 36.336 52.9628 35.984C52.9628 35.648 53.0508 35.368 53.2268 35.144C53.4188 34.936 53.6268 34.832 53.8508 34.832C54.0908 34.832 54.2508 34.848 54.3308 34.88C54.1868 35.52 54.3708 35.84 54.8828 35.84C55.2988 35.84 55.7708 35.368 56.2988 34.424C56.8268 33.48 57.2988 32.48 57.7148 31.424L53.5388 21.392H53.5148L52.3388 21.248C52.2748 20.592 52.4987 20.264 53.0107 20.264H57.0428V20.432C57.0428 20.816 56.9308 21.056 56.7068 21.152C56.5788 21.216 56.1388 21.28 55.3867 21.344L58.5068 29.384L61.5788 21.392L60.1868 21.248C60.1228 20.592 60.3468 20.264 60.8588 20.264ZM68.0136 21.368V28.424C68.0136 29.32 68.1096 29.968 68.3016 30.368C68.5096 30.768 68.8936 30.968 69.4536 30.968C70.0296 30.968 70.5096 30.904 70.8936 30.776C71.2776 30.648 71.7496 30.36 72.3096 29.912C72.5976 29.992 72.7416 30.232 72.7416 30.632C72.7416 31.032 72.3496 31.424 71.5656 31.808C70.7976 32.192 70.0536 32.384 69.3336 32.384C68.2136 32.384 67.4376 32.064 67.0056 31.424C66.5736 30.784 66.3576 29.856 66.3576 28.64V21.368H64.6056C64.5576 20.632 64.7896 20.264 65.3016 20.264H66.3576V17.408L68.0136 17V20.264H72.5016C72.5496 20.792 72.4296 21.16 72.1416 21.368H68.0136ZM86.6861 32H82.1261V31.808C82.1261 31.296 82.3821 31.016 82.8941 30.968L83.8781 30.92V24.896C83.8781 23.728 83.6301 22.856 83.1341 22.28C82.6381 21.688 81.9901 21.392 81.1901 21.392C80.4061 21.392 79.7581 21.52 79.2461 21.776C78.7501 22.032 78.2141 22.416 77.6381 22.928V30.872L79.4621 31.016C79.5261 31.672 79.3021 32 78.7901 32H74.2301V31.808C74.2301 31.424 74.3421 31.184 74.5661 31.088C74.6781 31.024 74.8141 30.984 74.9741 30.968L75.9821 30.92V16.856L74.7341 16.736C74.3501 16.688 74.1581 16.344 74.1581 15.704L77.6381 15.248V21.608C78.7421 20.472 79.9981 19.904 81.4061 19.904C82.5261 19.904 83.4861 20.296 84.2861 21.08C85.0861 21.848 85.4941 23.072 85.5101 24.752L85.5341 30.872L87.3341 31.016C87.3981 31.672 87.1821 32 86.6861 32ZM94.0575 21.152C92.9695 21.152 92.1295 21.624 91.5375 22.568C90.9455 23.512 90.6495 24.72 90.6495 26.192C90.6495 27.648 90.9375 28.84 91.5135 29.768C92.0895 30.68 92.9215 31.136 94.0095 31.136C95.0975 31.12 95.9375 30.656 96.5295 29.744C97.1215 28.832 97.4175 27.656 97.4175 26.216C97.4175 24.76 97.1295 23.552 96.5535 22.592C95.9935 21.616 95.1615 21.136 94.0575 21.152ZM94.2015 19.904C95.4175 19.904 96.5135 20.288 97.4895 21.056C98.0015 21.472 98.4095 22.08 98.7135 22.88C99.0335 23.68 99.1935 24.64 99.1935 25.76C99.2255 27.744 98.7615 29.344 97.8015 30.56C96.8415 31.76 95.5455 32.36 93.9135 32.36C92.2815 32.36 91.0415 31.848 90.1935 30.824C89.3455 29.8 88.9055 28.32 88.8735 26.384C88.8575 24.448 89.3295 22.888 90.2895 21.704C91.2655 20.504 92.5695 19.904 94.2015 19.904ZM113.589 32H109.125V31.808C109.125 31.424 109.237 31.184 109.461 31.088C109.573 31.024 109.709 30.984 109.869 30.968L110.925 30.92V24.704C110.925 22.464 110.037 21.344 108.261 21.344C107.605 21.344 107.013 21.472 106.485 21.728C105.957 21.984 105.357 22.392 104.685 22.952V30.872L106.389 31.016C106.453 31.672 106.237 32 105.741 32H101.229V31.808C101.229 31.296 101.485 31.016 101.997 30.968L103.029 30.92V21.464L101.781 21.32C101.397 21.288 101.205 20.96 101.205 20.336L104.301 19.928L104.613 21.752H104.685C105.981 20.52 107.317 19.904 108.693 19.904C109.765 19.904 110.677 20.28 111.429 21.032C112.197 21.784 112.581 22.944 112.581 24.512V30.872L114.261 31.016C114.325 31.672 114.101 32 113.589 32Z" fill="#707770"/>
<path d="M20.3883 9C12.5186 9 13.01 12.4128 13.01 12.4128L13.0187 15.9485H20.5287V17.0101H10.0359C10.0359 17.0101 5 16.4389 5 24.3795C5 32.3202 9.39542 32.0386 9.39542 32.0386H12.0186V28.3538C12.0186 28.3538 11.8772 23.9584 16.3438 23.9584H23.7924C23.7924 23.9584 27.9772 24.026 27.9772 19.9139V13.1148C27.9772 13.1148 28.6128 9 20.3883 9ZM16.2473 11.3777C16.4248 11.3776 16.6006 11.4124 16.7645 11.4802C16.9285 11.5481 17.0775 11.6476 17.203 11.7731C17.3285 11.8986 17.428 12.0476 17.4959 12.2116C17.5637 12.3755 17.5985 12.5513 17.5984 12.7288C17.5985 12.9062 17.5637 13.082 17.4959 13.246C17.428 13.41 17.3285 13.559 17.203 13.6844C17.0775 13.8099 16.9285 13.9094 16.7645 13.9773C16.6006 14.0451 16.4248 14.08 16.2473 14.0798C16.0699 14.08 15.8941 14.0451 15.7301 13.9773C15.5661 13.9094 15.4171 13.8099 15.2917 13.6844C15.1662 13.559 15.0667 13.41 14.9988 13.246C14.931 13.082 14.8961 12.9062 14.8963 12.7288C14.8961 12.5513 14.931 12.3755 14.9988 12.2116C15.0667 12.0476 15.1662 11.8986 15.2917 11.7731C15.4171 11.6476 15.5661 11.5481 15.7301 11.4802C15.8941 11.4124 16.0699 11.3776 16.2473 11.3777Z" fill="url(#paint0_linear_1_151)"/>
<path d="M20.6118 39.8388C28.4815 39.8388 27.9902 36.426 27.9902 36.426L27.9814 32.8904H20.4714V31.8289H30.9642C30.9642 31.8289 36 32.4 36 24.4592C36 16.5186 31.6046 16.8002 31.6046 16.8002H28.9814V20.4849C28.9814 20.4849 29.1228 24.8803 24.6562 24.8803H17.2076C17.2076 24.8803 13.0228 24.8127 13.0228 28.9249V35.7242C13.0228 35.7242 12.3874 39.8388 20.6117 39.8388H20.6118ZM24.7528 37.4613C24.5753 37.4615 24.3996 37.4267 24.2356 37.3588C24.0716 37.291 23.9226 37.1915 23.7971 37.066C23.6716 36.9405 23.5721 36.7915 23.5043 36.6275C23.4364 36.4635 23.4016 36.2878 23.4018 36.1103C23.4016 35.9328 23.4364 35.7571 23.5042 35.5931C23.5721 35.4291 23.6716 35.28 23.7971 35.1545C23.9226 35.029 24.0716 34.9295 24.2355 34.8617C24.3995 34.7938 24.5753 34.759 24.7528 34.7592C24.9303 34.759 25.106 34.7938 25.27 34.8617C25.434 34.9295 25.583 35.029 25.7085 35.1545C25.834 35.28 25.9335 35.429 26.0013 35.593C26.0691 35.757 26.104 35.9327 26.1038 36.1102C26.104 36.2877 26.0691 36.4634 26.0013 36.6274C25.9335 36.7914 25.834 36.9404 25.7085 37.0659C25.583 37.1914 25.434 37.2909 25.27 37.3587C25.106 37.4265 24.9303 37.4614 24.7528 37.4612V37.4613Z" fill="url(#paint1_linear_1_151)"/>
<defs>
<linearGradient id="paint0_linear_1_151" x1="7.97909" y1="11.7738" x2="23.3418" y2="26.9832" gradientUnits="userSpaceOnUse">
<stop stop-color="#387EB8"/>
<stop offset="1" stop-color="#366994"/>
</linearGradient>
<linearGradient id="paint1_linear_1_151" x1="17.4087" y1="21.5404" x2="33.9064" y2="37.1362" gradientUnits="userSpaceOnUse">
<stop stop-color="#FFE052"/>
<stop offset="1" stop-color="#FFC331"/>
</linearGradient>
</defs>
</svg>
