<svg width="125" height="46" viewBox="0 0 125 46" fill="none" xmlns="http://www.w3.org/2000/svg">
<rect width="124.711" height="46" rx="10" fill="white"/>
<rect x="0.5" y="0.5" width="123.711" height="45" rx="9.5" stroke="black" stroke-opacity="0.5"/>
<path d="M19 26.9325C20.3807 26.9325 21.5 25.8132 21.5 24.4325C21.5 23.0518 20.3807 21.9325 19 21.9325C17.6193 21.9325 16.5 23.0518 16.5 24.4325C16.5 25.8132 17.6193 26.9325 19 26.9325Z" fill="#00D8FF"/>
<path d="M19 30.1645C15.9951 30.2371 12.9978 29.8321 10.12 28.9645C8.79062 28.543 7.55073 27.8792 6.463 27.0065C6.04793 26.7083 5.70227 26.3239 5.44974 25.8796C5.19721 25.4353 5.04379 24.9416 5 24.4325C5 22.7795 6.816 21.1595 9.858 20.0995C12.8127 19.1602 15.8999 18.705 19 18.7515C22.0587 18.7087 25.1045 19.1557 28.022 20.0755C29.3023 20.4836 30.5001 21.1154 31.56 21.9415C31.968 22.2257 32.3084 22.5962 32.5573 23.0267C32.8061 23.4571 32.9573 23.9371 33 24.4325C33 26.1505 30.97 27.8915 27.7 28.9735C24.8779 29.8128 21.9438 30.2145 19 30.1645ZM19 19.9475C16.0341 19.9078 13.0808 20.3406 10.251 21.2295C7.451 22.2065 6.196 23.5425 6.196 24.4295C6.196 25.3575 7.545 26.8165 10.507 27.8295C13.2601 28.6553 16.1266 29.0397 19 28.9685C21.8164 29.0188 24.6239 28.6377 27.325 27.8385C30.4 26.8195 31.8 25.3585 31.8 24.4325C31.7495 24.1147 31.6337 23.8108 31.4599 23.5401C31.2861 23.2693 31.058 23.0376 30.79 22.8595C29.8418 22.1266 28.7717 21.5667 27.629 21.2055C24.838 20.3292 21.925 19.9045 19 19.9475Z" fill="#00D8FF"/>
<path d="M13.32 36.9015C12.8535 36.9122 12.3925 36.799 11.984 36.5735C10.552 35.7475 10.056 33.3655 10.657 30.2005C11.3197 27.1716 12.4678 24.2698 14.057 21.6075C15.5477 18.9366 17.4562 16.5214 19.71 14.4535C20.7032 13.5482 21.8489 12.826 23.094 12.3205C23.5444 12.1094 24.0356 12 24.533 12C25.0304 12 25.5216 12.1094 25.972 12.3205C27.461 13.1785 27.954 15.8065 27.259 19.1795C26.5759 22.044 25.4576 24.7869 23.943 27.3125C22.5047 29.9518 20.6564 32.346 18.467 34.4055C17.4378 35.3463 16.2433 36.0884 14.944 36.5945C14.4238 36.7875 13.8748 36.8913 13.32 36.9015ZM15.093 22.2015C13.5771 24.7508 12.4767 27.5252 11.833 30.4205C11.28 33.3355 11.811 35.0885 12.583 35.5345C13.383 35.9975 15.325 35.5585 17.683 33.4985C19.773 31.5254 21.5372 29.2337 22.91 26.7085C24.3609 24.294 25.4337 21.6716 26.091 18.9325C26.745 15.7575 26.18 13.8135 25.378 13.3515C25.0774 13.2363 24.7562 13.1847 24.4347 13.2001C24.1131 13.2154 23.7983 13.2972 23.51 13.4405C22.4017 13.8978 21.3827 14.5471 20.5 15.3585C18.3467 17.3393 16.5237 19.6514 15.1 22.2075L15.093 22.2015Z" fill="#00D8FF"/>
<path d="M24.677 36.9145C23.322 36.9145 21.601 36.0945 19.809 34.5535C17.5157 32.4667 15.575 30.0229 14.062 27.3165C12.4927 24.6908 11.3537 21.831 10.688 18.8455C10.3993 17.532 10.3458 16.1777 10.53 14.8455C10.5726 14.3513 10.7231 13.8724 10.9708 13.4427C11.2186 13.013 11.5576 12.6429 11.964 12.3585C13.451 11.4975 15.974 12.3825 18.549 14.6685C20.6896 16.6907 22.5074 19.0292 23.939 21.6025C25.5073 24.1668 26.6583 26.964 27.349 29.8895C27.6501 31.2512 27.6966 32.6569 27.486 34.0355C27.4359 34.5439 27.2765 35.0354 27.0186 35.4765C26.7607 35.9175 26.4105 36.2975 25.992 36.5905C25.5902 36.8132 25.1363 36.925 24.677 36.9145ZM15.097 26.7145C16.5484 29.3009 18.4023 31.6398 20.589 33.6435C22.838 35.5785 24.622 35.9945 25.389 35.5435C26.189 35.0785 26.779 33.1805 26.171 30.1095C25.5049 27.3164 24.4009 24.6464 22.9 22.1985C21.5338 19.7356 19.7988 17.4963 17.755 15.5585C15.331 13.4065 13.365 12.9255 12.564 13.3895C12.3144 13.5924 12.1095 13.8448 11.9623 14.1309C11.8152 14.4169 11.7289 14.7304 11.709 15.0515C11.55 16.2396 11.6018 17.4464 11.862 18.6165C12.5023 21.4716 13.5948 24.2061 15.098 26.7165L15.097 26.7145Z" fill="#00D8FF"/>
<path d="M39.008 33V32.616C39.008 32.264 39.168 32.04 39.488 31.944C39.568 31.912 39.656 31.896 39.752 31.896L40.856 31.848V17.904L39.104 17.76C39.056 17.056 39.264 16.704 39.728 16.704H44.984C48.488 16.704 50.24 18.032 50.24 20.688C50.24 22 49.824 23.056 48.992 23.856C48.176 24.64 47.096 25.144 45.752 25.368C46.728 27.432 47.744 29.04 48.8 30.192C49.872 31.344 50.8 31.92 51.584 31.92C51.568 32.352 51.44 32.704 51.2 32.976C50.976 33.232 50.688 33.36 50.336 33.36C49.68 33.36 48.944 32.936 48.128 32.088C46.576 30.456 45.296 28.256 44.288 25.488H44.216C43.688 25.488 43.144 25.464 42.584 25.416V31.8L44.408 31.944C44.472 32.648 44.256 33 43.76 33H39.008ZM42.584 17.856V24.312C43.256 24.344 43.728 24.36 44 24.36C45.44 24.36 46.536 24.064 47.288 23.472C48.04 22.88 48.416 22.056 48.416 21C48.416 19.592 47.968 18.672 47.072 18.24C46.304 17.872 45.304 17.72 44.072 17.784L42.632 17.856H42.584ZM62.1716 26.688H54.6356C54.6196 26.848 54.6116 27.096 54.6116 27.432C54.6116 28.792 54.8996 29.896 55.4756 30.744C56.0516 31.576 56.9476 31.992 58.1636 31.992C59.3796 31.992 60.5396 31.56 61.6436 30.696C61.8356 30.856 61.9316 31.056 61.9316 31.296C61.9316 31.744 61.4916 32.2 60.6116 32.664C59.7476 33.128 58.7716 33.36 57.6836 33.36C56.1956 33.36 55.0036 32.872 54.1076 31.896C53.2276 30.92 52.7876 29.432 52.7876 27.432C52.7876 25.432 53.3156 23.848 54.3716 22.68C55.4276 21.496 56.6756 20.904 58.1156 20.904C59.5556 20.904 60.5956 21.36 61.2356 22.272C61.8756 23.184 62.1876 24.272 62.1716 25.536V26.688ZM60.4196 25.608C60.4196 24.536 60.2116 23.688 59.7956 23.064C59.3796 22.424 58.7716 22.104 57.9716 22.104C57.1876 22.104 56.5156 22.416 55.9556 23.04C55.3956 23.664 55.0036 24.52 54.7796 25.608H60.4196ZM74.5301 32.256C74.5301 33.008 74.0341 33.384 73.0421 33.384C72.0501 33.384 71.4741 32.88 71.3141 31.872C70.2901 32.864 69.0581 33.36 67.6181 33.36C66.5141 33.36 65.6341 33.08 64.9781 32.52C64.3381 31.944 64.0181 31.168 64.0181 30.192C64.0181 29.216 64.3781 28.392 65.0981 27.72C65.8181 27.048 67.0101 26.712 68.6741 26.712C69.6501 26.712 70.5141 26.824 71.2661 27.048V25.152C71.2661 24.24 71.0341 23.512 70.5701 22.968C70.1221 22.408 69.4581 22.128 68.5781 22.128C67.6981 22.128 67.0661 22.368 66.6821 22.848C66.3141 23.312 66.1061 23.856 66.0581 24.48C65.6741 24.512 65.3541 24.432 65.0981 24.24C64.8421 24.048 64.7141 23.736 64.7141 23.304C64.7141 22.616 65.0661 22.048 65.7701 21.6C66.4741 21.136 67.3861 20.904 68.5061 20.904C69.4821 20.904 70.4101 21.144 71.2901 21.624C71.7861 21.88 72.1861 22.304 72.4901 22.896C72.7941 23.488 72.9461 24.208 72.9461 25.056V32.064L74.5301 32.256ZM71.2661 28.488C70.5301 28.088 69.6741 27.888 68.6981 27.888C67.7221 27.888 67.0021 28.072 66.5381 28.44C66.0901 28.808 65.8661 29.312 65.8661 29.952C65.8661 30.592 66.0661 31.104 66.4661 31.488C66.8661 31.856 67.4181 32.04 68.1221 32.04C69.2421 32.04 70.2901 31.608 71.2661 30.744V28.488ZM81.5609 20.904C82.5849 20.904 83.3929 21.112 83.9849 21.528C84.5929 21.944 84.8969 22.496 84.8969 23.184C84.8969 24.064 84.4489 24.488 83.5529 24.456C83.5369 23.864 83.3289 23.344 82.9289 22.896C82.5449 22.432 81.9609 22.2 81.1769 22.2C80.0409 22.2 79.1689 22.672 78.5609 23.616C77.9689 24.56 77.6729 25.752 77.6729 27.192C77.6729 28.456 77.9209 29.544 78.4169 30.456C78.9929 31.464 79.9849 31.968 81.3929 31.968C82.5449 31.968 83.6409 31.544 84.6809 30.696C84.8889 30.84 84.9929 31.032 84.9929 31.272C84.9929 31.752 84.5369 32.224 83.6249 32.688C82.7129 33.136 81.7369 33.36 80.6969 33.36C79.1769 33.36 78.0009 32.832 77.1689 31.776C76.3529 30.72 75.9289 29.28 75.8969 27.456C75.8649 25.616 76.3529 24.064 77.3609 22.8C78.3689 21.536 79.7689 20.904 81.5609 20.904ZM89.7245 22.368V29.424C89.7245 30.32 89.8205 30.968 90.0125 31.368C90.2205 31.768 90.6045 31.968 91.1645 31.968C91.7405 31.968 92.2205 31.904 92.6045 31.776C92.9885 31.648 93.4605 31.36 94.0205 30.912C94.3085 30.992 94.4525 31.232 94.4525 31.632C94.4525 32.032 94.0605 32.424 93.2765 32.808C92.5085 33.192 91.7645 33.384 91.0445 33.384C89.9245 33.384 89.1485 33.064 88.7165 32.424C88.2845 31.784 88.0685 30.856 88.0685 29.64V22.368H86.3165C86.2685 21.632 86.5005 21.264 87.0125 21.264H88.0685V18.408L89.7245 18V21.264H94.2125C94.2605 21.792 94.1405 22.16 93.8525 22.368H89.7245ZM97.9811 33C97.7411 33.24 97.4371 33.36 97.0691 33.36C96.7011 33.36 96.3971 33.24 96.1571 33C95.9171 32.744 95.7971 32.432 95.7971 32.064C95.7971 31.696 95.9171 31.392 96.1571 31.152C96.3971 30.912 96.7011 30.792 97.0691 30.792C97.4371 30.792 97.7411 30.912 97.9811 31.152C98.2211 31.392 98.3411 31.696 98.3411 32.064C98.3411 32.432 98.2211 32.744 97.9811 33ZM101.495 16.992C101.719 16.768 102.007 16.656 102.359 16.656C102.711 16.656 102.999 16.768 103.223 16.992C103.447 17.216 103.559 17.504 103.559 17.856C103.559 18.208 103.447 18.496 103.223 18.72C102.999 18.928 102.711 19.032 102.359 19.032C102.007 19.032 101.719 18.928 101.495 18.72C101.287 18.496 101.183 18.208 101.183 17.856C101.183 17.504 101.287 17.216 101.495 16.992ZM103.367 32.784C103.367 34.48 103.055 35.84 102.431 36.864C101.823 37.904 100.895 38.424 99.6474 38.424C99.1834 38.424 98.7594 38.312 98.3754 38.088C97.9914 37.864 97.7994 37.552 97.7994 37.152C97.7994 36.768 97.9034 36.48 98.1114 36.288C98.3194 36.112 98.5914 36.032 98.9274 36.048C98.9594 36.768 99.3354 37.128 100.055 37.128C100.599 37.128 101.007 36.896 101.279 36.432C101.567 35.968 101.711 35.144 101.711 33.96V22.416L100.439 22.296C100.071 22.248 99.8874 21.912 99.8874 21.288L103.367 20.904V32.784ZM106.32 24.264C106.336 23.224 106.76 22.4 107.592 21.792C108.424 21.184 109.328 20.888 110.304 20.904C111.296 20.92 112.112 21.096 112.752 21.432C113.392 21.752 113.704 22.232 113.688 22.872C113.672 23.304 113.52 23.616 113.232 23.808C112.944 24 112.632 24.08 112.296 24.048C112.312 23.488 112.136 23.032 111.768 22.68C111.416 22.328 110.896 22.144 110.208 22.128C109.52 22.112 108.944 22.272 108.48 22.608C108.032 22.928 107.8 23.344 107.784 23.856C107.768 24.368 107.992 24.784 108.456 25.104C108.936 25.408 109.608 25.728 110.472 26.064C111.336 26.4 111.92 26.648 112.224 26.808C112.544 26.952 112.888 27.152 113.256 27.408C113.944 27.888 114.272 28.616 114.24 29.592C114.224 30.568 113.8 31.448 112.968 32.232C112.136 33 111.024 33.376 109.632 33.36C108.64 33.328 107.768 33.12 107.016 32.736C106.264 32.336 105.888 31.792 105.888 31.104C105.904 30.736 106.024 30.448 106.248 30.24C106.488 30.016 106.776 29.912 107.112 29.928C107.24 30.584 107.56 31.112 108.072 31.512C108.6 31.912 109.248 32.12 110.016 32.136C110.784 32.136 111.424 31.96 111.936 31.608C112.448 31.24 112.712 30.76 112.728 30.168C112.744 29.576 112.56 29.128 112.176 28.824C111.808 28.52 111.272 28.24 110.568 27.984C109.864 27.712 109.368 27.52 109.08 27.408C108.808 27.296 108.464 27.128 108.048 26.904C107.648 26.68 107.336 26.456 107.112 26.232C106.584 25.672 106.32 25.016 106.32 24.264Z" fill="#707770"/>
</svg>
