<svg width="123" height="45" viewBox="0 0 123 45" fill="none" xmlns="http://www.w3.org/2000/svg">
<rect width="105" height="45" rx="10" fill="white"/>
<rect x="0.5" y="0.5" width="104" height="44" rx="9.5" stroke="black" stroke-opacity="0.5"/>
<path d="M52.744 16.4C53.256 16.832 53.512 17.336 53.512 17.912C53.512 18.488 53.36 18.904 53.056 19.16C52.768 19.4 52.416 19.512 52 19.496C52 17.64 51.024 16.712 49.072 16.712C48.16 16.712 47.4 16.928 46.792 17.36C46.2 17.792 45.904 18.392 45.904 19.16C45.904 20.072 46.344 20.808 47.224 21.368C47.704 21.672 48.096 21.896 48.4 22.04C48.704 22.184 49.184 22.4 49.84 22.688C50.496 22.96 51 23.184 51.352 23.36C51.72 23.536 52.12 23.768 52.552 24.056C52.984 24.328 53.304 24.592 53.512 24.848C54.024 25.504 54.28 26.264 54.28 27.128C54.28 28.568 53.736 29.8 52.648 30.824C51.576 31.848 50.16 32.36 48.4 32.36C47.136 32.36 46.016 32.104 45.04 31.592C44.08 31.08 43.6 30.4 43.6 29.552C43.6 29.136 43.72 28.792 43.96 28.52C44.216 28.248 44.56 28.112 44.992 28.112C45.184 29.072 45.608 29.8 46.264 30.296C46.92 30.792 47.792 31.04 48.88 31.04C49.968 31.04 50.864 30.744 51.568 30.152C52.272 29.544 52.624 28.744 52.624 27.752C52.624 26.824 52.296 26.12 51.64 25.64C51.128 25.256 50.576 24.944 49.984 24.704C49.408 24.448 48.904 24.224 48.472 24.032C48.04 23.84 47.6 23.632 47.152 23.408C46.72 23.168 46.248 22.864 45.736 22.496C44.744 21.776 44.248 20.8 44.248 19.568C44.248 18.336 44.72 17.344 45.664 16.592C46.624 15.824 47.808 15.424 49.216 15.392C50.704 15.36 51.88 15.696 52.744 16.4ZM69.4743 33.44C69.6023 33.6 69.6663 33.84 69.6663 34.16C69.6663 34.496 69.5223 34.784 69.2343 35.024C68.9463 35.264 68.5863 35.384 68.1543 35.384C67.7223 35.384 67.2743 35.32 66.8103 35.192C66.3623 35.08 65.8823 34.888 65.3703 34.616C64.8583 34.36 64.4263 34.128 64.0743 33.92C63.7383 33.728 63.2743 33.44 62.6823 33.056C62.1063 32.688 61.7223 32.448 61.5303 32.336C59.7863 32.176 58.4103 31.4 57.4023 30.008C56.4103 28.6 55.8903 26.744 55.8423 24.44C55.7943 21.72 56.3943 19.536 57.6423 17.888C58.8903 16.224 60.6423 15.392 62.8983 15.392C64.1943 15.392 65.3383 15.712 66.3303 16.352C68.3143 17.632 69.3303 20 69.3783 23.456C69.4103 25.856 68.9303 27.84 67.9383 29.408C66.9463 30.96 65.5143 31.904 63.6423 32.24C65.7863 33.296 67.3303 33.824 68.2743 33.824C68.6743 33.824 69.0743 33.696 69.4743 33.44ZM62.6343 16.664C60.9543 16.68 59.6983 17.336 58.8663 18.632C58.0343 19.928 57.6183 21.68 57.6183 23.888C57.6183 26.08 58.0183 27.832 58.8183 29.144C59.6343 30.44 60.8823 31.088 62.5623 31.088C64.2423 31.072 65.5063 30.424 66.3543 29.144C67.2023 27.848 67.6263 26.104 67.6263 23.912C67.6263 21.704 67.2103 19.944 66.3783 18.632C65.5623 17.304 64.3143 16.648 62.6343 16.664ZM82.7768 28.664V32H71.6408V31.808C71.6408 31.392 71.7528 31.12 71.9768 30.992C72.0888 30.944 72.2248 30.912 72.3848 30.896L73.4888 30.848V16.928L71.7128 16.784C71.6328 16.064 71.8568 15.704 72.3848 15.704H77.1608V15.896C77.1608 16.328 77.0488 16.592 76.8248 16.688C76.7128 16.752 76.5768 16.792 76.4168 16.808L75.2168 16.88V30.8L81.4568 30.68L81.7208 28.04C82.4248 27.976 82.7768 28.184 82.7768 28.664Z" fill="#707770"/>
<path d="M9.525 22.256C11.913 23.0954 14.4323 23.4994 16.963 23.449C19.4938 23.4991 22.013 23.0947 24.401 22.255C26.265 21.528 26.926 20.72 26.926 20.255V16.7C26.2743 17.1364 25.5752 17.4974 24.842 17.776C22.3154 18.6807 19.6463 19.1218 16.963 19.078C14.2799 19.121 11.6111 18.6806 9.084 17.778C8.35047 17.4994 7.65125 17.1377 7 16.7V20.25C7 20.724 7.663 21.528 9.525 22.256ZM9.525 28.961C10.3686 29.2827 11.2385 29.5307 12.125 29.702C13.719 30.0104 15.3394 30.1621 16.963 30.155C18.5865 30.1624 20.2069 30.011 21.801 29.703C22.6875 29.5316 23.5574 29.2837 24.401 28.962C26.265 28.235 26.926 27.427 26.926 26.962V23.572C26.3873 23.8962 25.8211 24.1722 25.234 24.397C22.5798 25.3368 19.7782 25.7917 16.963 25.74C14.1475 25.7901 11.3459 25.3335 8.692 24.392C8.10512 24.1666 7.53898 23.8906 7 23.567V26.96C7 27.426 7.663 28.231 9.525 28.961ZM16.963 37C22.463 37 26.926 35.256 26.926 33.106V30.269C26.4359 30.5644 25.9226 30.8193 25.391 31.031L25.234 31.094C22.5803 32.0366 19.7787 32.4942 16.963 32.445C14.1472 32.4956 11.3454 32.0379 8.692 31.094C8.638 31.074 8.586 31.051 8.535 31.031C8.00343 30.8193 7.49005 30.5644 7 30.269V33.106C7 35.256 11.463 37 16.963 37Z" fill="#FFDA44"/>
<path d="M16.963 16.788C22.4654 16.788 26.926 15.0446 26.926 12.894C26.926 10.7434 22.4654 9 16.963 9C11.4606 9 7 10.7434 7 12.894C7 15.0446 11.4606 16.788 16.963 16.788Z" fill="#FFDA44"/>
</svg>
