<svg width="106" height="28" viewBox="0 0 106 28" fill="none" xmlns="http://www.w3.org/2000/svg">
<rect width="105.274" height="21.25" rx="10.625" fill="#5BC159"/>
<path d="M25.75 4.845H28.36C28.36 4.845 28.36 4.885 28.36 4.965C28.36 5.235 28.29 5.4 28.15 5.46C28.08 5.5 27.995 5.525 27.895 5.535L27.235 5.565V11.19C27.235 12.47 26.945 13.465 26.365 14.175C25.795 14.875 24.9 15.225 23.68 15.225C21.52 15.225 20.44 13.945 20.44 11.385V5.595L19.345 5.505C19.305 5.065 19.44 4.845 19.75 4.845H22.675C22.675 4.845 22.675 4.885 22.675 4.965C22.675 5.225 22.6 5.39 22.45 5.46C22.38 5.5 22.295 5.525 22.195 5.535L21.52 5.565L21.505 11.325C21.505 13.405 22.275 14.445 23.815 14.445C24.645 14.445 25.285 14.195 25.735 13.695C26.195 13.185 26.425 12.41 26.425 11.37V5.595L25.33 5.505C25.29 5.065 25.43 4.845 25.75 4.845ZM37.1123 15H34.3223V14.88C34.3223 14.64 34.3923 14.49 34.5323 14.43C34.6023 14.39 34.6873 14.365 34.7873 14.355L35.4473 14.325V10.44C35.4473 9.04 34.8923 8.34 33.7823 8.34C33.3723 8.34 33.0023 8.42 32.6723 8.58C32.3423 8.74 31.9673 8.995 31.5473 9.345V14.295L32.6123 14.385C32.6523 14.795 32.5173 15 32.2073 15H29.3873V14.88C29.3873 14.56 29.5473 14.385 29.8673 14.355L30.5123 14.325V8.415L29.7323 8.325C29.4923 8.305 29.3723 8.1 29.3723 7.71L31.3073 7.455L31.5023 8.595H31.5473C32.3573 7.825 33.1923 7.44 34.0523 7.44C34.7223 7.44 35.2923 7.675 35.7623 8.145C36.2423 8.615 36.4823 9.34 36.4823 10.32V14.295L37.5323 14.385C37.5723 14.795 37.4323 15 37.1123 15ZM45.1565 14.535C45.1565 15.005 44.8465 15.24 44.2265 15.24C43.6065 15.24 43.2465 14.925 43.1465 14.295C42.5065 14.915 41.7365 15.225 40.8365 15.225C40.1465 15.225 39.5965 15.05 39.1865 14.7C38.7865 14.34 38.5865 13.855 38.5865 13.245C38.5865 12.635 38.8115 12.12 39.2615 11.7C39.7115 11.28 40.4565 11.07 41.4965 11.07C42.1065 11.07 42.6465 11.14 43.1165 11.28V10.095C43.1165 9.525 42.9715 9.07 42.6815 8.73C42.4015 8.38 41.9865 8.205 41.4365 8.205C40.8865 8.205 40.4915 8.355 40.2515 8.655C40.0215 8.945 39.8915 9.285 39.8615 9.675C39.6215 9.695 39.4215 9.645 39.2615 9.525C39.1015 9.405 39.0215 9.21 39.0215 8.94C39.0215 8.51 39.2415 8.155 39.6815 7.875C40.1215 7.585 40.6915 7.44 41.3915 7.44C42.0015 7.44 42.5815 7.59 43.1315 7.89C43.4415 8.05 43.6915 8.315 43.8815 8.685C44.0715 9.055 44.1665 9.505 44.1665 10.035V14.415L45.1565 14.535ZM43.1165 12.18C42.6565 11.93 42.1215 11.805 41.5115 11.805C40.9015 11.805 40.4515 11.92 40.1615 12.15C39.8815 12.38 39.7415 12.695 39.7415 13.095C39.7415 13.495 39.8665 13.815 40.1165 14.055C40.3665 14.285 40.7115 14.4 41.1515 14.4C41.8515 14.4 42.5065 14.13 43.1165 13.59V12.18ZM46.0408 9.54C46.0508 8.89 46.3158 8.375 46.8358 7.995C47.3558 7.615 47.9208 7.43 48.5308 7.44C49.1508 7.45 49.6608 7.56 50.0608 7.77C50.4608 7.97 50.6558 8.27 50.6458 8.67C50.6358 8.94 50.5408 9.135 50.3608 9.255C50.1808 9.375 49.9858 9.425 49.7758 9.405C49.7858 9.055 49.6758 8.77 49.4458 8.55C49.2258 8.33 48.9008 8.215 48.4708 8.205C48.0408 8.195 47.6808 8.295 47.3908 8.505C47.1108 8.705 46.9658 8.965 46.9558 9.285C46.9458 9.605 47.0858 9.865 47.3758 10.065C47.6758 10.255 48.0958 10.455 48.6358 10.665C49.1758 10.875 49.5408 11.03 49.7308 11.13C49.9308 11.22 50.1458 11.345 50.3758 11.505C50.8058 11.805 51.0108 12.26 50.9908 12.87C50.9808 13.48 50.7158 14.03 50.1958 14.52C49.6758 15 48.9808 15.235 48.1108 15.225C47.4908 15.205 46.9458 15.075 46.4758 14.835C46.0058 14.585 45.7708 14.245 45.7708 13.815C45.7808 13.585 45.8558 13.405 45.9958 13.275C46.1458 13.135 46.3258 13.07 46.5358 13.08C46.6158 13.49 46.8158 13.82 47.1358 14.07C47.4658 14.32 47.8708 14.45 48.3508 14.46C48.8308 14.46 49.2308 14.35 49.5508 14.13C49.8708 13.9 50.0358 13.6 50.0458 13.23C50.0558 12.86 49.9408 12.58 49.7008 12.39C49.4708 12.2 49.1358 12.025 48.6958 11.865C48.2558 11.695 47.9458 11.575 47.7658 11.505C47.5958 11.435 47.3808 11.33 47.1208 11.19C46.8708 11.05 46.6758 10.91 46.5358 10.77C46.2058 10.42 46.0408 10.01 46.0408 9.54ZM59.9088 7.665H61.8438C61.8838 8.065 61.7388 8.275 61.4088 8.295L61.3188 8.31L58.8288 15H58.1988L56.5788 10.35L54.8388 15H54.2238L52.0038 8.37L51.4038 8.28C51.3738 7.87 51.5038 7.665 51.7938 7.665H54.1938V7.77C54.1938 7.85 54.1838 7.91 54.1638 7.95C54.1538 7.98 54.1338 8.025 54.1038 8.085C54.0638 8.205 53.9338 8.275 53.7138 8.295L53.1588 8.34L54.7038 13.56L56.5488 8.295H57.0588L58.6788 13.44L60.3588 8.37L59.5038 8.28C59.4638 7.87 59.5988 7.665 59.9088 7.665ZM68.3553 11.055H63.6453C63.6353 11.155 63.6303 11.31 63.6303 11.52C63.6303 12.37 63.8103 13.06 64.1703 13.59C64.5303 14.11 65.0903 14.37 65.8503 14.37C66.6103 14.37 67.3353 14.1 68.0253 13.56C68.1453 13.66 68.2053 13.785 68.2053 13.935C68.2053 14.215 67.9303 14.5 67.3803 14.79C66.8403 15.08 66.2303 15.225 65.5503 15.225C64.6203 15.225 63.8753 14.92 63.3153 14.31C62.7653 13.7 62.4903 12.77 62.4903 11.52C62.4903 10.27 62.8203 9.28 63.4803 8.55C64.1403 7.81 64.9203 7.44 65.8203 7.44C66.7203 7.44 67.3703 7.725 67.7703 8.295C68.1703 8.865 68.3653 9.545 68.3553 10.335V11.055ZM67.2603 10.38C67.2603 9.71 67.1303 9.18 66.8703 8.79C66.6103 8.39 66.2303 8.19 65.7303 8.19C65.2403 8.19 64.8203 8.385 64.4703 8.775C64.1203 9.165 63.8753 9.7 63.7353 10.38H67.2603ZM71.6693 8.655C71.9693 8.335 72.3393 8.055 72.7793 7.815C73.2293 7.565 73.5943 7.44 73.8743 7.44C74.1643 7.44 74.3993 7.51 74.5793 7.65C74.7593 7.78 74.8493 7.99 74.8493 8.28C74.8493 8.8 74.7643 9.155 74.5943 9.345C74.4643 9.455 74.2593 9.5 73.9793 9.48C73.9793 8.76 73.7893 8.4 73.4093 8.4C72.9293 8.4 72.3493 8.74 71.6693 9.42V14.295L72.9593 14.385C72.9993 14.795 72.8593 15 72.5393 15H69.5393V14.88C69.5393 14.64 69.6093 14.49 69.7493 14.43C69.8193 14.39 69.9043 14.365 70.0043 14.355L70.6343 14.325V8.46L69.8243 8.37C69.6043 8.35 69.4943 8.145 69.4943 7.755L71.5193 7.5L71.6243 8.655H71.6693ZM81.3631 11.055H76.6531C76.6431 11.155 76.6381 11.31 76.6381 11.52C76.6381 12.37 76.8181 13.06 77.1781 13.59C77.5381 14.11 78.0981 14.37 78.8581 14.37C79.6181 14.37 80.3431 14.1 81.0331 13.56C81.1531 13.66 81.2131 13.785 81.2131 13.935C81.2131 14.215 80.9381 14.5 80.3881 14.79C79.8481 15.08 79.2381 15.225 78.5581 15.225C77.6281 15.225 76.8831 14.92 76.3231 14.31C75.7731 13.7 75.4981 12.77 75.4981 11.52C75.4981 10.27 75.8281 9.28 76.4881 8.55C77.1481 7.81 77.9281 7.44 78.8281 7.44C79.7281 7.44 80.3781 7.725 80.7781 8.295C81.1781 8.865 81.3731 9.545 81.3631 10.335V11.055ZM80.2681 10.38C80.2681 9.71 80.1381 9.18 79.8781 8.79C79.6181 8.39 79.2381 8.19 78.7381 8.19C78.2481 8.19 77.8281 8.385 77.4781 8.775C77.1281 9.165 76.8831 9.7 76.7431 10.38H80.2681ZM88.8021 15.225C88.1421 15.225 87.7871 14.86 87.7371 14.13C87.0071 14.86 86.2221 15.225 85.3821 15.225C84.5421 15.225 83.8421 14.92 83.2821 14.31C82.7321 13.69 82.4421 12.77 82.4121 11.55C82.3821 10.32 82.6821 9.33 83.3121 8.58C83.9521 7.82 84.8421 7.44 85.9821 7.44C86.5921 7.44 87.1721 7.57 87.7221 7.83V5.535L86.9421 5.445C86.7021 5.425 86.5821 5.21 86.5821 4.8L88.7571 4.53V14.4L89.7171 14.52C89.6971 14.99 89.3921 15.225 88.8021 15.225ZM87.7221 8.985C87.1821 8.495 86.5271 8.25 85.7571 8.25C84.9971 8.25 84.4321 8.545 84.0621 9.135C83.7021 9.715 83.5221 10.445 83.5221 11.325C83.5221 12.205 83.7021 12.93 84.0621 13.5C84.4221 14.06 84.9721 14.34 85.7121 14.34C86.0821 14.34 86.4121 14.265 86.7021 14.115C86.9921 13.965 87.3321 13.725 87.7221 13.395V8.985Z" fill="white"/>
</svg>
